<svg xmlns="http://www.w3.org/2000/svg" width="166" height="32" fill="none" viewBox="0 0 166 32">
  <path fill="#0F1418" d="M161 0H31v32h130a5 5 0 005-5V5a5 5 0 00-5-5z"/>
  <path fill="#4CD489" d="M31 0H5a5 5 0 00-5 5v22a5 5 0 005 5h26V0z"/>
  <path fill="#fff" d="M14 6h2v2h.5A1.5 1.5 0 0118 9.5V13l-.44.44 1.64 2.84c1.11-1.09 1.8-2.6 1.8-4.28h2c0 2.42-1.07 4.59-2.77 6.06l3.14 5.44.13 2.22-1.87-1.22-3.07-5.33c-1.06.53-2.28.83-3.56.83-1.28 0-2.5-.3-3.56-.83L8.37 24.5 6.5 25.72l.13-2.22 5.81-10.06L12 13V9.5A1.5 1.5 0 0113.5 8h.5V6zm-1.56 11.43c.78.37 1.65.57 2.56.57.91 0 1.78-.2 2.56-.57L16.1 14.9h-.01c-.62.6-1.56.6-2.18 0h-.01l-1.46 2.53zM15 10a1 1 0 100 2 1 1 0 000-2zM53.817 21h-2.578l-.747-2.336h-3.736L46.016 21h-2.563l3.823-10.503h2.805L53.817 21zm-3.867-4.153l-1.128-3.53a4.603 4.603 0 01-.176-.945h-.059a4.003 4.003 0 01-.183.916l-1.142 3.56h2.688zM62.588 21h-2.307v-4.168c0-1.162-.415-1.743-1.245-1.743-.4 0-.73.154-.989.462-.259.307-.388.698-.388 1.172V21h-2.315v-7.5h2.315v1.187h.03c.551-.914 1.354-1.37 2.409-1.37 1.66 0 2.49 1.03 2.49 3.09V21zm9.357 0h-2.314v-1.033h-.03c-.527.81-1.3 1.216-2.321 1.216-.938 0-1.692-.33-2.263-.989-.572-.664-.857-1.589-.857-2.775 0-1.24.315-2.234.945-2.982.63-.747 1.455-1.12 2.475-1.12.967 0 1.64.347 2.022 1.04h.029v-4.46h2.314V21zm-2.27-3.648v-.563c0-.489-.142-.894-.425-1.216-.283-.322-.652-.484-1.106-.484-.513 0-.913.203-1.201.608-.288.4-.432.952-.432 1.655 0 .66.139 1.168.417 1.524.279.356.664.535 1.157.535.47 0 .85-.188 1.143-.564.298-.376.447-.874.447-1.495zm9.291-1.765a2.007 2.007 0 00-.974-.227c-.503 0-.896.186-1.18.557-.282.366-.424.867-.424 1.502V21h-2.314v-7.5h2.314v1.392h.03c.366-1.016 1.025-1.524 1.977-1.524.244 0 .434.03.571.088v2.131zm4.78 5.596c-1.25 0-2.234-.349-2.952-1.047-.713-.703-1.07-1.655-1.07-2.857 0-1.24.372-2.21 1.114-2.907.742-.704 1.746-1.055 3.01-1.055 1.246 0 2.222.351 2.93 1.055.708.698 1.062 1.623 1.062 2.776 0 1.245-.366 2.229-1.099 2.951-.727.723-1.726 1.084-2.995 1.084zm.058-6.094c-.547 0-.971.188-1.274.564-.303.376-.454.908-.454 1.597 0 1.44.58 2.16 1.743 2.16 1.108 0 1.663-.74 1.663-2.219 0-1.401-.56-2.102-1.678-2.102zm6.89-2.776c-.391 0-.711-.114-.96-.344a1.132 1.132 0 01-.374-.857c0-.346.125-.63.374-.85.249-.219.569-.329.96-.329.395 0 .715.11.959.33.249.22.373.503.373.85 0 .35-.124.639-.373.864-.244.224-.564.336-.96.336zM91.835 21h-2.314v-7.5h2.314V21zm9.467 0h-2.314v-1.033h-.03c-.527.81-1.3 1.216-2.322 1.216-.937 0-1.691-.33-2.263-.989-.57-.664-.857-1.589-.857-2.775 0-1.24.315-2.234.945-2.982.63-.747 1.455-1.12 2.476-1.12.967 0 1.64.347 2.021 1.04h.03v-4.46h2.314V21zm-2.27-3.648v-.563c0-.489-.142-.894-.425-1.216-.283-.322-.652-.484-1.106-.484-.513 0-.913.203-1.201.608-.288.4-.433.952-.433 1.655 0 .66.14 1.168.418 1.524.278.356.664.535 1.157.535.469 0 .85-.188 1.143-.564.298-.376.447-.874.447-1.495zm8.731 3.245v-2.344c.425.357.886.625 1.384.806a4.505 4.505 0 001.509.264c.298 0 .557-.027.777-.08.224-.054.41-.128.556-.22a1 1 0 00.337-.337.912.912 0 00-.066-.974 1.869 1.869 0 00-.483-.447c-.2-.137-.44-.269-.718-.396a24.833 24.833 0 00-.901-.388c-.82-.342-1.433-.76-1.838-1.253-.401-.493-.601-1.088-.601-1.787 0-.546.11-1.015.33-1.406.22-.395.517-.72.893-.974.381-.254.821-.44 1.319-.557a6.622 6.622 0 011.582-.183c.547 0 1.03.034 1.45.103a5.57 5.57 0 011.172.3v2.19a4.1 4.1 0 00-1.216-.55 4.538 4.538 0 00-.659-.138 4.56 4.56 0 00-.615-.044c-.269 0-.513.027-.733.08-.22.049-.405.12-.556.213a1.056 1.056 0 00-.352.337.773.773 0 00-.125.432c0 .175.047.334.14.476.092.136.224.268.395.395.171.122.379.244.623.366.244.118.52.24.827.367.42.175.796.363 1.128.564.337.195.625.417.864.666.24.25.423.535.55.857.127.317.19.689.19 1.113 0 .586-.112 1.08-.337 1.48-.219.395-.52.718-.901.967-.38.244-.825.42-1.333.527a7.622 7.622 0 01-1.596.161 8.952 8.952 0 01-1.648-.146 4.962 4.962 0 01-1.348-.44zm13.261.315c-.342.18-.857.271-1.545.271-1.631 0-2.446-.847-2.446-2.541v-3.435h-1.216V13.5h1.216v-1.619l2.307-.659V13.5h1.684v1.707h-1.684v3.032c0 .781.31 1.172.93 1.172.244 0 .495-.071.754-.213v1.714zm8.618.088h-2.307v-1.143h-.037c-.571.884-1.335 1.326-2.293 1.326-1.738 0-2.607-1.052-2.607-3.157V13.5h2.307v4.321c0 1.06.42 1.59 1.26 1.59.415 0 .747-.144.996-.433.249-.293.374-.688.374-1.186V13.5h2.307V21zm9.474 0h-2.314v-1.033h-.03c-.527.81-1.301 1.216-2.321 1.216-.938 0-1.692-.33-2.264-.989-.571-.664-.857-1.589-.857-2.775 0-1.24.315-2.234.945-2.982.63-.747 1.455-1.12 2.476-1.12.967 0 1.641.347 2.021 1.04h.03v-4.46h2.314V21zm-2.27-3.648v-.563c0-.489-.142-.894-.425-1.216-.283-.322-.652-.484-1.106-.484-.513 0-.913.203-1.201.608-.288.4-.432.952-.432 1.655 0 .66.139 1.168.417 1.524.278.356.664.535 1.157.535.469 0 .85-.188 1.143-.564.298-.376.447-.874.447-1.495zm5.57-5.039c-.39 0-.71-.114-.959-.344a1.133 1.133 0 01-.374-.857c0-.346.125-.63.374-.85.249-.219.569-.329.959-.329.396 0 .716.11.96.33.249.22.373.503.373.85 0 .35-.124.639-.373.864-.244.224-.564.336-.96.336zM143.56 21h-2.315v-7.5h2.315V21zm5.702.183c-1.25 0-2.234-.349-2.951-1.047-.713-.703-1.07-1.655-1.07-2.857 0-1.24.371-2.21 1.114-2.907.742-.704 1.745-1.055 3.01-1.055 1.245 0 2.222.351 2.93 1.055.708.698 1.062 1.623 1.062 2.776 0 1.245-.367 2.229-1.099 2.951-.728.723-1.726 1.084-2.996 1.084zm.059-6.094c-.547 0-.972.188-1.275.564-.302.376-.454.908-.454 1.597 0 1.44.581 2.16 1.744 2.16 1.108 0 1.662-.74 1.662-2.219 0-1.401-.559-2.102-1.677-2.102z"/>
  <path fill="url(#paint0_linear_2_84)" d="M161 0H5a5 5 0 00-5 5v22a5 5 0 005 5h156a5 5 0 005-5V5a5 5 0 00-5-5z"/>
  <defs>
    <linearGradient id="paint0_linear_2_84" x1="0" x2="0" y1="0" y2="32" gradientUnits="userSpaceOnUse">
      <stop stop-color="#BBB" stop-opacity=".1"/>
      <stop offset="1" stop-opacity=".1"/>
    </linearGradient>
  </defs>
</svg>
