<svg xmlns="http://www.w3.org/2000/svg" width="130" height="32" fill="none" viewBox="0 0 130 32">
  <path fill="#0F1418" d="M125 0H31v32h94a5 5 0 005-5V5a5 5 0 00-5-5z"/>
  <path fill="#DD0031" d="M31 0H5a5 5 0 00-5 5v22a5 5 0 005 5h26V0z"/>
  <path fill="#fff" d="M14.091 16.648h4.082l-2.04-4.907-2.042 4.907zM16.132 4L5 7.986l1.704 14.77L16.132 28l9.429-5.245 1.703-14.77L16.132 4zm6.975 18.31h-2.603L19.1 18.808h-5.925l-1.404 3.504H9.162l6.97-15.66 6.975 15.66zM62.243 22h-2.578l-.748-2.336h-3.735L54.442 22H51.88l3.823-10.503h2.805L62.243 22zm-3.867-4.153l-1.128-3.53a4.603 4.603 0 01-.176-.945h-.059a4.003 4.003 0 01-.183.916l-1.142 3.56h2.688zM71.014 22h-2.307v-4.168c0-1.162-.415-1.743-1.245-1.743-.4 0-.73.154-.989.462-.259.307-.388.698-.388 1.172V22H63.77v-7.5h2.315v1.187h.03c.55-.914 1.354-1.37 2.409-1.37 1.66 0 2.49 1.03 2.49 3.09V22zm9.372-.857c0 1.392-.403 2.468-1.209 3.23-.805.767-1.972 1.15-3.5 1.15-1.011 0-1.812-.144-2.403-.432v-1.948c.772.449 1.55.673 2.337.673.78 0 1.386-.207 1.816-.622.43-.41.644-.97.644-1.677v-.594h-.029c-.527.84-1.306 1.26-2.336 1.26-.957 0-1.717-.337-2.278-1.01-.562-.674-.842-1.578-.842-2.71 0-1.27.312-2.278.937-3.026.625-.747 1.448-1.12 2.468-1.12.913 0 1.597.351 2.051 1.055h.03V14.5h2.314v6.643zM78.1 18.396v-.593c0-.473-.142-.876-.425-1.208a1.348 1.348 0 00-1.091-.506c-.513 0-.916.2-1.209.6-.293.401-.44.965-.44 1.693 0 .625.14 1.12.418 1.487.278.361.66.542 1.143.542a1.41 1.41 0 001.157-.55c.298-.37.447-.859.447-1.465zM89.626 22h-2.307v-1.143h-.037c-.571.884-1.335 1.326-2.292 1.326-1.739 0-2.608-1.052-2.608-3.157V14.5h2.307v4.321c0 1.06.42 1.59 1.26 1.59.415 0 .747-.144.996-.433.25-.293.374-.688.374-1.186V14.5h2.307V22zm4.45 0h-2.314V10.896h2.314V22zm8.368 0h-2.189v-1.077h-.03c-.503.84-1.247 1.26-2.234 1.26-.727 0-1.3-.205-1.72-.615-.416-.415-.623-.967-.623-1.655 0-1.456.861-2.295 2.585-2.52l2.036-.27c0-.821-.444-1.231-1.333-1.231-.893 0-1.743.266-2.549.798v-1.743c.323-.166.762-.313 1.319-.44a7 7 0 011.53-.19c2.139 0 3.208 1.067 3.208 3.2V22zm-2.175-3.047v-.505l-1.362.175c-.752.098-1.128.438-1.128 1.019 0 .263.09.48.27.652.186.165.435.248.748.248.435 0 .789-.148 1.062-.446.273-.303.41-.684.41-1.143zm9.079-2.366a2.006 2.006 0 00-.974-.227c-.503 0-.896.186-1.179.557-.283.366-.425.867-.425 1.502V22h-2.314v-7.5h2.314v1.392h.029c.366-1.016 1.026-1.524 1.978-1.524.244 0 .434.03.571.088v2.131z"/>
  <path fill="url(#paint0_linear_1_9)" d="M125 0H5a5 5 0 00-5 5v22a5 5 0 005 5h120a5 5 0 005-5V5a5 5 0 00-5-5z"/>
  <defs>
    <linearGradient id="paint0_linear_1_9" x1="0" x2="0" y1="0" y2="32" gradientUnits="userSpaceOnUse">
      <stop stop-color="#BBB" stop-opacity=".1"/>
      <stop offset="1" stop-opacity=".1"/>
    </linearGradient>
  </defs>
</svg>
