<svg xmlns="http://www.w3.org/2000/svg" width="127" height="32" fill="none" viewBox="0 0 127 32">
  <path fill="#0F1418" d="M122 0H31v32h91a5 5 0 005-5V5a5 5 0 00-5-5z"/>
  <path fill="#563D7C" d="M31 0H5a5 5 0 00-5 5v22a5 5 0 005 5h26V0z"/>
  <path fill="#563D7C" d="M4 24.905A3.094 3.094 0 007.095 28h17.81A3.094 3.094 0 0028 24.905V7.095A3.095 3.095 0 0024.905 4H7.095A3.095 3.095 0 004 7.095v17.81z"/>
  <path fill="#fff" d="M13.952 14.616v-3.399h2.992c.285 0 .56.024.824.072.265.047.499.132.703.254.203.122.366.292.488.509.122.217.183.495.183.834 0 .61-.183 1.052-.55 1.323-.366.271-.834.407-1.404.407h-3.236zm-3.195-5.882v14.532H17.8c.651 0 1.285-.082 1.903-.245a5.089 5.089 0 001.648-.753c.482-.339.865-.776 1.15-1.312.285-.536.427-1.17.427-1.903 0-.91-.22-1.686-.66-2.33-.442-.645-1.11-1.096-2.006-1.354.652-.312 1.143-.712 1.476-1.2.332-.49.498-1.1.498-1.832 0-.679-.111-1.249-.335-1.71a2.791 2.791 0 00-.947-1.11c-.407-.277-.895-.477-1.465-.6a9.046 9.046 0 00-1.893-.183h-6.838zm3.195 12.049v-3.99h3.48c.692 0 1.249.16 1.67.479.42.319.63.851.63 1.598 0 .38-.064.692-.193.936a1.536 1.536 0 01-.52.58 2.2 2.2 0 01-.752.305c-.285.061-.584.092-.896.092h-3.419zM44.676 22V11.497H48.5c1.172 0 2.072.215 2.702.645.63.43.945 1.035.945 1.816 0 .566-.193 1.062-.578 1.487-.381.425-.87.72-1.465.886v.03c.747.092 1.343.368 1.787.827.45.459.674 1.018.674 1.677 0 .962-.345 1.726-1.033 2.293-.688.561-1.628.842-2.82.842h-4.036zm2.366-8.76v2.49h1.04c.489 0 .872-.117 1.15-.351.283-.24.425-.566.425-.981 0-.772-.576-1.158-1.729-1.158h-.886zm0 4.248v2.769h1.282c.547 0 .974-.127 1.282-.381.312-.254.468-.6.468-1.04 0-.42-.153-.75-.461-.989-.303-.24-.727-.359-1.274-.359h-1.297zm11.05 4.695c-1.25 0-2.234-.349-2.952-1.047-.713-.703-1.07-1.655-1.07-2.857 0-1.24.371-2.21 1.114-2.907.742-.704 1.745-1.055 3.01-1.055 1.245 0 2.222.351 2.93 1.055.708.698 1.062 1.623 1.062 2.776 0 1.245-.367 2.229-1.099 2.951-.728.723-1.726 1.084-2.996 1.084zm.058-6.094c-.547 0-.972.188-1.274.564-.303.376-.455.909-.455 1.597 0 1.44.581 2.16 1.744 2.16 1.108 0 1.662-.74 1.662-2.219 0-1.401-.559-2.102-1.677-2.102zm9.291 6.094c-1.25 0-2.234-.349-2.951-1.047-.713-.703-1.07-1.655-1.07-2.857 0-1.24.371-2.21 1.114-2.907.742-.704 1.745-1.055 3.01-1.055 1.245 0 2.222.351 2.93 1.055.707.698 1.061 1.623 1.061 2.776 0 1.245-.366 2.229-1.098 2.951-.728.723-1.726 1.084-2.996 1.084zm.059-6.094c-.547 0-.972.188-1.275.564-.302.376-.454.909-.454 1.597 0 1.44.581 2.16 1.743 2.16 1.109 0 1.663-.74 1.663-2.219 0-1.401-.559-2.102-1.677-2.102zm10.25 5.823c-.341.18-.856.271-1.545.271-1.63 0-2.446-.847-2.446-2.541v-3.436h-1.216V14.5h1.216v-1.619l2.307-.659V14.5h1.685v1.706h-1.685v3.033c0 .781.31 1.172.93 1.172.244 0 .496-.071.755-.213v1.714zm1.001-.11v-1.875c.38.23.76.4 1.135.513.381.112.74.168 1.077.168.41 0 .732-.056.967-.168.239-.112.359-.283.359-.513a.474.474 0 00-.162-.366 1.485 1.485 0 00-.417-.256 4.477 4.477 0 00-.55-.198 6.726 6.726 0 01-.578-.198 6.051 6.051 0 01-.791-.359 2.44 2.44 0 01-.571-.454 1.856 1.856 0 01-.352-.593 2.433 2.433 0 01-.117-.798c0-.42.09-.782.271-1.084.185-.303.43-.55.732-.74a3.275 3.275 0 011.048-.425c.395-.093.805-.14 1.23-.14.332 0 .67.028 1.011.082a7.16 7.16 0 011.01.22v1.786a3.55 3.55 0 00-.944-.38 3.824 3.824 0 00-.982-.132c-.15 0-.295.014-.432.043a1.243 1.243 0 00-.351.118.608.608 0 00-.242.197.507.507 0 00.044.623c.088.098.203.183.344.256.142.069.298.132.469.19.176.055.35.11.52.17.308.107.586.224.835.35.249.128.461.277.637.448.18.17.318.37.41.6.098.23.147.503.147.82 0 .445-.098.826-.293 1.143-.19.313-.447.569-.77.77a3.43 3.43 0 01-1.105.424c-.415.093-.847.14-1.297.14a6.7 6.7 0 01-2.292-.382zm11.81.11c-.341.18-.856.271-1.545.271-1.63 0-2.446-.847-2.446-2.541v-3.436h-1.216V14.5h1.216v-1.619l2.307-.659V14.5h1.685v1.706h-1.685v3.033c0 .781.31 1.172.93 1.172.245 0 .496-.071.755-.213v1.714zm6.384-5.325a2.007 2.007 0 00-.974-.227c-.503 0-.896.186-1.179.557-.283.366-.425.867-.425 1.502V22h-2.314v-7.5h2.314v1.392h.03c.366-1.016 1.025-1.524 1.977-1.524.244 0 .435.03.571.088v2.131zM104.45 22h-2.19v-1.077h-.03c-.503.84-1.247 1.26-2.234 1.26-.727 0-1.3-.205-1.72-.615-.416-.415-.623-.967-.623-1.655 0-1.456.862-2.295 2.585-2.52l2.036-.27c0-.821-.444-1.231-1.333-1.231-.893 0-1.743.266-2.549.798v-1.743c.323-.166.762-.313 1.319-.44a7 7 0 011.531-.19c2.138 0 3.208 1.067 3.208 3.2V22zm-2.176-3.047v-.505l-1.362.175c-.752.098-1.128.438-1.128 1.019 0 .263.09.48.271.652.186.165.435.248.747.248.435 0 .789-.148 1.062-.446.274-.303.41-.684.41-1.143zm6.53 2.175h-.029v4.322h-2.314V14.5h2.314v1.128h.029c.572-.874 1.375-1.311 2.41-1.311.972 0 1.721.334 2.249 1.003.532.664.798 1.57.798 2.718 0 1.25-.31 2.253-.93 3.01-.615.757-1.436 1.135-2.461 1.135-.903 0-1.592-.352-2.066-1.055zm-.065-3.076v.6c0 .518.136.94.41 1.268.273.327.632.49 1.076.49.528 0 .935-.202 1.224-.607.292-.41.439-.989.439-1.736 0-1.319-.513-1.978-1.538-1.978-.474 0-.862.181-1.165.542-.298.357-.446.83-.446 1.421z"/>
  <path fill="url(#paint0_linear_1_20)" d="M122 0H5a5 5 0 00-5 5v22a5 5 0 005 5h117a5 5 0 005-5V5a5 5 0 00-5-5z"/>
  <defs>
    <linearGradient id="paint0_linear_1_20" x1="0" x2="0" y1="0" y2="32" gradientUnits="userSpaceOnUse">
      <stop stop-color="#BBB" stop-opacity=".1"/>
      <stop offset="1" stop-opacity=".1"/>
    </linearGradient>
  </defs>
</svg>
