<svg xmlns="http://www.w3.org/2000/svg" width="93" height="32" fill="none" viewBox="0 0 93 32">
  <path fill="#0F1418" d="M88 0H31v32h57a5 5 0 005-5V5a5 5 0 00-5-5z"/>
  <path fill="#15495D" d="M31 0H5a5 5 0 00-5 5v22a5 5 0 005 5h26V0z"/>
  <path fill="#fff" d="M19.846 19.115a1.84 1.84 0 00-.885-.223c-.68 0-1.152.474-1.152 1.113 0 .62.451 1.113 1.152 1.113.309 0 .613-.075.885-.221v1.119c-.31.095-.634.145-.959.148-1.183 0-2.222-.816-2.222-2.16 0-1.245.94-2.158 2.222-2.158a3.2 3.2 0 01.96.15v1.119zm-10.984 0a1.828 1.828 0 00-.884-.223c-.681 0-1.153.474-1.153 1.113 0 .62.452 1.113 1.153 1.113.309 0 .613-.075.884-.221v1.119a3.36 3.36 0 01-.96.148c-1.182 0-2.22-.816-2.22-2.16 0-1.245.94-2.158 2.22-2.158.326 0 .65.05.96.15v1.119zm14.295-.207a1.078 1.078 0 00-1.088 1.097 1.077 1.077 0 001.088 1.097 1.079 1.079 0 001.088-1.097 1.08 1.08 0 00-1.088-1.097zm2.203 1.097c0 1.193-.92 2.16-2.203 2.16-1.282 0-2.203-.967-2.203-2.16 0-1.191.92-2.16 2.203-2.16 1.282 0 2.203.968 2.203 2.16zm-10.008-1.137a3.598 3.598 0 00-.823-.127c-.421 0-.65.14-.65.341 0 .254.309.343.482.398l.29.092c.683.217.994.685.994 1.193 0 1.047-.921 1.4-1.726 1.4a6.32 6.32 0 01-1.136-.114v-.96c.093.023.534.155.994.155.523 0 .764-.153.764-.39 0-.21-.209-.333-.47-.415-.063-.02-.159-.05-.224-.072-.586-.186-1.075-.53-1.075-1.22 0-.78.584-1.304 1.554-1.304.346.005.69.05 1.026.133v.89zM11.361 22.09H10.31v-4.17h1.052v4.17zM4.566 13.438a.522.522 0 00-1.045 0v1.095a.522.522 0 001.045 0v-1.095zm2.87-1.436a.522.522 0 10-1.045 0v2.531a.523.523 0 101.045 0v-2.531zm2.87-1.966a.522.522 0 00-1.045 0v5.538a.522.522 0 001.045 0v-5.538zm2.87 1.966a.522.522 0 10-1.046 0v2.53a.522.522 0 101.045 0v-2.53zm2.866 1.436a.52.52 0 10-1.042 0v1.095a.52.52 0 101.042 0v-1.095zm2.87-1.436a.521.521 0 00-1.04 0v2.531a.521.521 0 001.04 0v-2.531zm2.872-1.966a.52.52 0 00-1.041 0v5.538a.52.52 0 00.788.47.52.52 0 00.253-.47v-5.538zm2.871 1.966a.524.524 0 00-1.048 0v2.531a.522.522 0 00.722.484.522.522 0 00.326-.484v-2.531zm2.866 1.436a.521.521 0 10-1.043 0v1.095a.52.52 0 101.043 0v-1.095zM52.067 21.627c-.766.37-1.767.556-3.003.556-1.611 0-2.878-.474-3.801-1.42-.923-.948-1.384-2.21-1.384-3.787 0-1.68.517-3.042 1.553-4.087 1.04-1.045 2.387-1.568 4.042-1.568 1.026 0 1.89.13 2.593.389v2.277c-.703-.42-1.504-.63-2.402-.63-.986 0-1.782.31-2.388.93-.605.62-.908 1.46-.908 2.52 0 1.016.286 1.826.857 2.432.571.6 1.34.9 2.307.9.923 0 1.768-.224 2.534-.673v2.16zm3.22-8.313c-.39 0-.71-.115-.96-.345a1.132 1.132 0 01-.373-.857c0-.346.124-.63.373-.85.25-.219.57-.329.96-.329.395 0 .715.11.96.33.248.22.373.503.373.85 0 .35-.125.639-.374.864-.244.224-.564.336-.96.336zM56.429 22h-2.314v-7.5h2.314V22zm1.638-.198v-1.875c.38.23.76.4 1.135.513.381.112.74.168 1.077.168.41 0 .732-.056.967-.168.239-.112.358-.283.358-.513a.475.475 0 00-.16-.366 1.487 1.487 0 00-.418-.256 4.47 4.47 0 00-.55-.198 6.728 6.728 0 01-.578-.198 6.051 6.051 0 01-.791-.359 2.44 2.44 0 01-.571-.454 1.856 1.856 0 01-.352-.593 2.436 2.436 0 01-.117-.798c0-.42.09-.782.27-1.084.186-.303.43-.55.733-.74a3.276 3.276 0 011.048-.425c.395-.093.805-.14 1.23-.14.332 0 .67.028 1.01.082a7.16 7.16 0 011.012.22v1.786a3.549 3.549 0 00-.945-.38 3.824 3.824 0 00-.982-.132c-.151 0-.295.014-.432.043a1.243 1.243 0 00-.351.118.609.609 0 00-.242.197.507.507 0 00.044.623c.088.098.203.183.344.256.142.069.298.132.469.19.176.055.349.11.52.17.307.107.586.224.835.35.249.128.461.277.637.448.18.17.317.37.41.6.098.23.147.503.147.82 0 .445-.098.826-.293 1.143-.19.313-.447.569-.77.77a3.431 3.431 0 01-1.105.424c-.415.093-.847.14-1.297.14a6.7 6.7 0 01-2.292-.382zm12.96-.073c-.522.303-1.276.454-2.263.454-1.152 0-2.084-.349-2.797-1.047-.713-.698-1.07-1.6-1.07-2.703 0-1.274.381-2.278 1.143-3.01.766-.738 1.79-1.106 3.069-1.106.884 0 1.523.117 1.919.351v1.963a2.639 2.639 0 00-1.619-.542c-.664 0-1.191.196-1.582.586-.386.386-.579.92-.579 1.604 0 .664.186 1.187.557 1.568.371.376.881.564 1.53.564.577 0 1.14-.181 1.693-.542v1.86zm5.278.454c-1.25 0-2.234-.349-2.951-1.047-.713-.703-1.07-1.655-1.07-2.857 0-1.24.371-2.21 1.114-2.907.742-.704 1.745-1.055 3.01-1.055 1.245 0 2.221.351 2.93 1.055.708.698 1.062 1.623 1.062 2.776 0 1.245-.367 2.229-1.1 2.951-.727.723-1.725 1.084-2.995 1.084zm.059-6.094c-.547 0-.972.188-1.275.564-.302.376-.454.909-.454 1.597 0 1.44.581 2.16 1.744 2.16 1.108 0 1.662-.74 1.662-2.219 0-1.401-.559-2.102-1.677-2.102z"/>
  <path fill="url(#paint0_linear_2_88)" d="M88 0H5a5 5 0 00-5 5v22a5 5 0 005 5h83a5 5 0 005-5V5a5 5 0 00-5-5z"/>
  <defs>
    <linearGradient id="paint0_linear_2_88" x1="0" x2="0" y1="0" y2="32" gradientUnits="userSpaceOnUse">
      <stop stop-color="#BBB" stop-opacity=".1"/>
      <stop offset="1" stop-opacity=".1"/>
    </linearGradient>
  </defs>
</svg>
