<svg xmlns="http://www.w3.org/2000/svg" width="107" height="32" fill="none" viewBox="0 0 107 32">
  <path fill="#0F1418" d="M102 0H31v32h71a5 5 0 005-5V5a5 5 0 00-5-5z"/>
  <path fill="#29B2E7" d="M31 0H5a5 5 0 00-5 5v22a5 5 0 005 5h26V0z"/>
  <path fill="#fff" d="M17.078 15.66H14.6v-2.227h2.478v2.228zm0-7.66H14.6v2.276h2.478V8zm2.933 5.43h-2.479v2.227h2.479V13.43zm-5.861-2.704h-2.479v2.254h2.479v-2.254zm2.928 0H14.6v2.254h2.478v-2.254zm10.38 3.75c-.54-.364-1.785-.495-2.741-.315-.124-.9-.626-1.684-1.541-2.389l-.525-.348-.35.524c-.689 1.043-.877 2.76-.138 3.893-.326.176-.967.416-1.815.4h-16.3c-.326 1.906.218 4.38 1.65 6.08 1.391 1.645 3.476 2.482 6.202 2.482 5.902 0 10.27-2.719 12.314-7.657.803.015 2.535.003 3.424-1.695.056-.094.247-.495.318-.642l-.498-.333zM8.293 13.43H5.818v2.227h2.479V13.43h-.004zm2.928 0H8.743v2.227h2.478V13.43zm2.929 0h-2.479v2.227h2.479V13.43zm-2.929-2.704H8.743v2.254h2.478v-2.254zM44.9 21V10.497h3.72c3.731 0 5.597 1.707 5.597 5.12 0 1.635-.51 2.942-1.531 3.918C51.67 20.512 50.316 21 48.62 21H44.9zm2.366-8.577v6.658h1.172c1.025 0 1.828-.308 2.41-.923.585-.615.878-1.452.878-2.512 0-1.001-.29-1.787-.871-2.358-.576-.577-1.387-.865-2.432-.865h-1.157zm12.485 8.76c-1.25 0-2.234-.349-2.952-1.047-.713-.703-1.07-1.655-1.07-2.857 0-1.24.372-2.21 1.114-2.907.742-.704 1.745-1.055 3.01-1.055 1.245 0 2.222.351 2.93 1.055.708.698 1.062 1.623 1.062 2.776 0 1.245-.367 2.229-1.099 2.951-.727.723-1.726 1.084-2.995 1.084zm.058-6.094c-.547 0-.972.188-1.274.564-.303.376-.454.908-.454 1.597 0 1.44.58 2.16 1.743 2.16 1.108 0 1.662-.74 1.662-2.219 0-1.401-.559-2.102-1.677-2.102zm11.4 5.64c-.522.303-1.276.454-2.262.454-1.153 0-2.085-.349-2.798-1.047-.713-.698-1.07-1.6-1.07-2.703 0-1.274.381-2.278 1.143-3.01.767-.738 1.79-1.106 3.069-1.106.884 0 1.523.117 1.919.351v1.963a2.638 2.638 0 00-1.619-.542c-.664 0-1.191.196-1.582.586-.386.386-.579.92-.579 1.604 0 .664.186 1.187.557 1.568.371.376.882.564 1.53.564.577 0 1.141-.181 1.693-.542v1.86zm9.219.271h-2.776l-2.395-3.72h-.03V21h-2.314V9.896h2.315v7.068h.029l2.234-3.464h2.746l-2.688 3.523L80.428 21zm7.577-3.09h-4.892c.078 1.088.764 1.633 2.058 1.633.825 0 1.55-.196 2.175-.587v1.67c-.693.372-1.594.557-2.703.557-1.21 0-2.15-.334-2.82-1.003-.668-.674-1.003-1.612-1.003-2.813 0-1.245.362-2.231 1.084-2.959.723-.727 1.612-1.091 2.666-1.091 1.094 0 1.939.325 2.535.974.6.65.9 1.53.9 2.644v.974zm-2.146-1.422c0-1.074-.434-1.611-1.303-1.611-.371 0-.694.154-.967.461-.269.308-.432.691-.49 1.15h2.76zm8.596-.9a2.007 2.007 0 00-.974-.228c-.503 0-.896.186-1.18.557-.283.366-.424.867-.424 1.502V21h-2.315v-7.5h2.315v1.392h.03c.365-1.016 1.024-1.524 1.977-1.524.244 0 .434.03.57.088v2.131z"/>
  <path fill="url(#paint0_linear_4_175)" d="M102 0H5a5 5 0 00-5 5v22a5 5 0 005 5h97a5 5 0 005-5V5a5 5 0 00-5-5z"/>
  <defs>
    <linearGradient id="paint0_linear_4_175" x1="0" x2="0" y1="0" y2="32" gradientUnits="userSpaceOnUse">
      <stop stop-color="#BBB" stop-opacity=".1"/>
      <stop offset="1" stop-opacity=".1"/>
    </linearGradient>
  </defs>
</svg>
