<svg xmlns="http://www.w3.org/2000/svg" width="105" height="32" fill="none" viewBox="0 0 105 32">
  <path fill="#0F1418" d="M100 0H31v32h69a5 5 0 005-5V5a5 5 0 00-5-5z"/>
  <path fill="#fff" stroke="#1C2125" d="M5 .5h25.5v31H5A4.5 4.5 0 01.5 27V5A4.5 4.5 0 015 .5z"/>
  <path fill="#2C2255" d="M9.769 19.024h-3.68c.487 1.672 1.391 3.17 2.715 4.494 2.11 2.11 4.648 3.164 7.615 3.164.594 0 1.168-.044 1.727-.128 2.235-.338 4.192-1.348 5.868-3.036 1.333-1.324 2.243-2.822 2.734-4.494H9.77zM7.74 14.026H5.817c-.07.422-.118.854-.14 1.296H27.162c-.022-.442-.07-.874-.14-1.296M5.677 16.525c.022.443.07.874.14 1.296h21.205c.07-.422.119-.854.14-1.296M26.749 12.822c-.49-1.676-1.402-3.18-2.735-4.514-1.672-1.672-3.623-2.675-5.851-3.013a11.6 11.6 0 00-1.744-.13c-2.967 0-5.505 1.048-7.615 3.143-1.324 1.333-2.229 2.838-2.716 4.514"/>
  <path fill="#F7941E" d="M5.038 15.924c0-5.676 4.263-10.392 9.808-11.221-.137-.005-.276-.01-.415-.01-6.222 0-11.267 5.028-11.267 11.23 0 6.204 5.044 11.232 11.268 11.232.139 0 .277-.005.415-.01-5.546-.83-9.809-5.545-9.809-11.221z"/>
  <g>
    <path fill="url(#paint0_linear_4_89)" d="M23.731 15.322a7.329 7.329 0 00-.222-1.296H9.33a7.313 7.313 0 00-.223 1.296h14.623z"/>
    <path fill="url(#paint1_linear_4_89)" d="M23.731 16.525H9.108c.036.444.11.878.223 1.296h14.178c.112-.419.186-.852.222-1.296z"/>
    <path fill="url(#paint2_linear_4_89)" d="M16.42 23.262a7.338 7.338 0 006.651-4.238H9.769a7.338 7.338 0 006.65 4.238z"/>
  </g>
  <g>
    <path fill="#fff" d="M8.025 16.525h19.123a10.97 10.97 0 00-.004-1.203H5.678a10.924 10.924 0 00-.005 1.203h2.352zM9.726 12.822H6.088c-.12.392-.197.794-.27 1.204H26.952c-.074-.41-.17-.811-.289-1.204M25.572 17.82H5.817c.072.41.154.812.272 1.204H26.734c.118-.392.213-.794.285-1.203h-1.447z"/>
  </g>
  <path fill="#fff" d="M51.09 21h-6.299V10.497h6.058v1.926h-3.692v2.337h3.435v1.919h-3.435v2.402h3.933V21zm7.585-.271c-.522.303-1.277.454-2.263.454-1.152 0-2.085-.349-2.798-1.047-.713-.698-1.07-1.6-1.07-2.703 0-1.274.382-2.278 1.143-3.01.767-.738 1.79-1.106 3.07-1.106.883 0 1.523.117 1.918.351v1.963a2.639 2.639 0 00-1.618-.542c-.665 0-1.192.196-1.583.586-.385.386-.578.92-.578 1.604 0 .664.185 1.187.556 1.568.372.376.882.564 1.531.564.576 0 1.14-.181 1.692-.542v1.86zm4.018.271h-2.314V9.896h2.314V21zm3.3-8.687c-.39 0-.71-.114-.96-.344a1.132 1.132 0 01-.373-.857c0-.346.125-.63.374-.85.249-.219.569-.329.96-.329.395 0 .715.11.959.33.249.22.373.503.373.85 0 .35-.124.639-.373.864-.245.224-.564.336-.96.336zM67.136 21H64.82v-7.5h2.315V21zm4.472-.872h-.03v4.322h-2.314V13.5h2.314v1.128h.03c.571-.874 1.374-1.311 2.41-1.311.971 0 1.72.334 2.248 1.003.532.664.798 1.57.798 2.718 0 1.25-.31 2.253-.93 3.01-.615.757-1.435 1.135-2.46 1.135-.904 0-1.593-.352-2.066-1.055zm-.066-3.076v.6c0 .518.136.94.41 1.268.273.327.632.49 1.077.49.527 0 .935-.202 1.223-.607.293-.41.44-.989.44-1.736 0-1.319-.513-1.978-1.539-1.978-.474 0-.862.181-1.164.542-.298.357-.447.83-.447 1.421zm6.713 3.75v-1.875c.38.23.76.4 1.135.513.381.112.74.168 1.077.168.41 0 .732-.056.967-.168.239-.112.359-.283.359-.513a.475.475 0 00-.162-.366 1.485 1.485 0 00-.417-.256 4.47 4.47 0 00-.55-.198 6.714 6.714 0 01-.578-.198 6.045 6.045 0 01-.79-.359 2.436 2.436 0 01-.572-.454 1.855 1.855 0 01-.352-.593 2.436 2.436 0 01-.117-.798c0-.42.09-.782.271-1.084.186-.303.43-.55.732-.74a3.277 3.277 0 011.048-.425 5.37 5.37 0 011.23-.14c.332 0 .67.028 1.011.082.342.048.679.122 1.01.22v1.786a3.55 3.55 0 00-.944-.38 3.823 3.823 0 00-.981-.132c-.152 0-.296.014-.433.043-.132.025-.249.064-.351.118a.61.61 0 00-.242.197.507.507 0 00.044.622c.088.099.203.184.344.257.142.069.298.132.469.19.176.055.35.11.52.17.308.107.586.224.835.35.249.128.461.277.637.448.18.17.318.37.41.6.098.23.147.503.147.82 0 .445-.098.826-.293 1.143-.19.313-.447.569-.77.77a3.43 3.43 0 01-1.105.424c-.415.093-.847.14-1.296.14a6.7 6.7 0 01-2.293-.382zm14.016-2.893h-4.893c.078 1.089.764 1.634 2.058 1.634.825 0 1.55-.196 2.175-.587v1.67c-.693.372-1.594.557-2.702.557-1.211 0-2.151-.334-2.82-1.003-.67-.674-1.004-1.612-1.004-2.813 0-1.245.362-2.231 1.084-2.959.723-.727 1.612-1.091 2.666-1.091 1.094 0 1.939.325 2.535.974.6.65.9 1.53.9 2.644v.974zm-2.147-1.42c0-1.075-.434-1.612-1.303-1.612-.371 0-.694.154-.967.461-.269.308-.432.691-.49 1.15h2.76z"/>
  <path fill="url(#paint3_linear_4_89)" d="M100 0H5a5 5 0 00-5 5v22a5 5 0 005 5h95a5 5 0 005-5V5a5 5 0 00-5-5z"/>
  <defs>
    <linearGradient id="paint0_linear_4_89" x1="16.42" x2="16.42" y1="28.142" y2="11.959" gradientUnits="userSpaceOnUse">
      <stop offset=".303" stop-color="#473788"/>
      <stop offset=".872" stop-color="#2C2255"/>
    </linearGradient>
    <linearGradient id="paint1_linear_4_89" x1="16.42" x2="16.42" y1="28.143" y2="11.959" gradientUnits="userSpaceOnUse">
      <stop offset=".303" stop-color="#473788"/>
      <stop offset=".872" stop-color="#2C2255"/>
    </linearGradient>
    <linearGradient id="paint2_linear_4_89" x1="16.42" x2="16.42" y1="28.142" y2="11.96" gradientUnits="userSpaceOnUse">
      <stop offset=".303" stop-color="#473788"/>
      <stop offset=".863" stop-color="#2C2255"/>
    </linearGradient>
    <linearGradient id="paint3_linear_4_89" x1="0" x2="0" y1="0" y2="32" gradientUnits="userSpaceOnUse">
      <stop stop-color="#BBB" stop-opacity=".1"/>
      <stop offset="1" stop-opacity=".1"/>
    </linearGradient>
  </defs>
</svg>
