<svg xmlns="http://www.w3.org/2000/svg" width="107" height="32" fill="none" viewBox="0 0 107 32">
  <path fill="#0F1418" d="M102 0H31v32h71a5 5 0 005-5V5a5 5 0 00-5-5z"/>
  <path fill="#F15744" d="M31 0H5a5 5 0 00-5 5v22a5 5 0 005 5h26V0z"/>
  <path fill="#fff" d="M27.904 15.476c-.171-.167-2.368-2.861-2.739-3.306-.4-.444-.57-.36-.827-.333-.257.028-3.024.5-3.338.528-.314.056-.513.167-.314.444.172.25 1.997 2.75 2.397 3.333l-7.275 1.695-5.762-9.416c-.228-.334-.285-.445-.799-.417-.513.028-4.535.361-4.82.361-.286.028-.6.14-.314.806.285.666 4.849 10.221 4.963 10.5.114.277.457.721 1.227.555.798-.195 3.537-.89 5.049-1.278.799 1.389 2.396 4.222 2.71 4.639.4.555.685.444 1.284.277.485-.139 7.474-2.583 7.788-2.722.313-.139.513-.222.285-.527-.171-.223-1.997-2.64-2.967-3.89.656-.166 3.024-.777 3.28-.86.286-.084.343-.222.172-.39zm-13.208 2.639c-.086.027-4.165.972-4.365 1.027-.228.056-.228.028-.228-.055-.057-.084-4.85-9.75-4.935-9.86-.057-.112-.057-.223 0-.223s3.851-.333 3.965-.333c.143 0 .114.027.171.11 0 0 5.335 8.972 5.42 9.111.114.14.057.195-.028.223zm11.468 2.083c.057.111.142.166-.086.222-.2.083-6.875 2.278-7.018 2.333-.142.056-.228.084-.399-.166s-2.34-3.889-2.34-3.889l7.104-1.806c.171-.055.228-.083.342.084.114.194 2.34 3.139 2.397 3.222zm.456-4.889c-.171.028-2.767.667-2.767.667l-2.14-2.833c-.057-.084-.114-.167.029-.195.143-.028 2.567-.444 2.681-.472.115-.028.2-.056.343.139.142.167 1.968 2.444 2.054 2.528.085.083-.029.138-.2.166zM50.838 21h-6.255V10.497h2.366v8.584h3.889V21zm7.878 0h-2.19v-1.077h-.03c-.503.84-1.247 1.26-2.233 1.26-.728 0-1.302-.205-1.722-.615-.415-.415-.622-.967-.622-1.655 0-1.456.862-2.295 2.585-2.52l2.036-.27c0-.821-.444-1.231-1.333-1.231-.893 0-1.743.266-2.548.798v-1.743c.322-.166.761-.313 1.318-.44a7 7 0 011.53-.19c2.14 0 3.209 1.067 3.209 3.2V21zm-2.176-3.047v-.505l-1.362.175c-.752.098-1.128.438-1.128 1.019 0 .263.09.48.271.652.186.165.435.248.747.248.435 0 .789-.148 1.062-.446.274-.303.41-.684.41-1.143zm9.08-2.366a2.007 2.007 0 00-.975-.227c-.503 0-.896.186-1.179.557-.283.366-.425.867-.425 1.502V21h-2.314v-7.5h2.314v1.392h.03c.366-1.016 1.025-1.524 1.977-1.524.244 0 .435.03.571.088v2.131zM73.123 21h-2.19v-1.077h-.03c-.503.84-1.247 1.26-2.234 1.26-.727 0-1.3-.205-1.72-.615-.416-.415-.623-.967-.623-1.655 0-1.456.862-2.295 2.585-2.52l2.036-.27c0-.821-.444-1.231-1.333-1.231-.893 0-1.743.266-2.549.798v-1.743c.323-.166.762-.313 1.319-.44a7 7 0 011.53-.19c2.14 0 3.209 1.067 3.209 3.2V21zm-2.176-3.047v-.505l-1.362.175c-.752.098-1.128.438-1.128 1.019 0 .263.09.48.271.652.186.165.435.248.747.248.435 0 .789-.148 1.062-.446.273-.303.41-.684.41-1.143zM82.276 13.5l-2.79 7.5h-2.638l-2.658-7.5h2.475l1.304 4.622c.147.522.232.966.256 1.333h.03c.034-.347.124-.777.27-1.29L79.86 13.5h2.417zm7.76 4.41h-4.892c.078 1.088.764 1.633 2.058 1.633.825 0 1.55-.196 2.175-.587v1.67c-.693.372-1.594.557-2.703.557-1.21 0-2.15-.334-2.82-1.003-.668-.674-1.003-1.612-1.003-2.813 0-1.245.362-2.231 1.084-2.959.723-.727 1.611-1.091 2.666-1.091 1.094 0 1.939.325 2.534.974.601.65.901 1.53.901 2.644v.974zm-2.146-1.422c0-1.074-.434-1.611-1.303-1.611-.371 0-.694.154-.967.461-.269.308-.432.691-.491 1.15h2.761zM93.908 21h-2.315V9.896h2.315V21z"/>
  <path fill="url(#paint0_linear_4_183)" d="M102 0H5a5 5 0 00-5 5v22a5 5 0 005 5h97a5 5 0 005-5V5a5 5 0 00-5-5z"/>
  <defs>
    <linearGradient id="paint0_linear_4_183" x1="0" x2="0" y1="0" y2="32" gradientUnits="userSpaceOnUse">
      <stop stop-color="#BBB" stop-opacity=".1"/>
      <stop offset="1" stop-opacity=".1"/>
    </linearGradient>
  </defs>
</svg>
