<svg xmlns="http://www.w3.org/2000/svg" width="93" height="32" fill="none" viewBox="0 0 93 32">
  <path fill="#0F1418" d="M88 0H31v32h57a5 5 0 005-5V5a5 5 0 00-5-5z"/>
  <path fill="#00678C" fill-rule="evenodd" d="M5.1 21.516h.797v-4.084l1.244 3.56c.14.428.343.587.735.587.392 0 .583-.159.728-.587l1.238-3.56v4.084h.803v-4.084c0-.397-.123-.587-.38-.69-.607-.238-1.011-.032-1.195.499l-1.22 3.521-1.176-3.521c-.178-.531-.588-.737-1.201-.5-.252.104-.374.294-.374.69v4.085H5.1zm6.208-3.323h.803v2.244c-.006.127.03.413.467.42.227.008 1.728 0 1.74 0v-2.68h.803v3.672c0 .904-.865 1.102-1.269 1.11h-2.524v-.69h2.531c.515-.071.454-.404.454-.515v-.27h-1.698c-.79-.008-1.3-.46-1.305-.975v-2.316h-.002zm17.22-2.601c-.49-.016-.87.047-1.188.222-.092.048-.24.048-.251.198.049.063.055.166.098.254.073.159.202.373.318.483.129.128.258.254.392.365.24.19.509.302.742.492.135.111.27.254.404.373.069.063.11.167.196.206v-.024c-.042-.071-.055-.174-.098-.254-.06-.079-.122-.15-.184-.23a3.426 3.426 0 00-.637-.8c-.196-.175-.625-.413-.704-.706l-.013-.016c.135-.016.294-.08.423-.127.209-.071.398-.056.613-.127a4.58 4.58 0 00.294-.111v-.071c-.11-.143-.19-.333-.306-.468a8.732 8.732 0 00-1.011-.976c-.19-.158-.436-.261-.638-.396-.074-.047-.196-.071-.239-.15-.11-.175-.172-.405-.251-.611-.178-.437-.35-.92-.503-1.38-.11-.31-.177-.619-.312-.904-.631-1.348-1.318-2.165-2.372-2.966-.226-.167-.496-.239-.783-.326l-.46-.032c-.098-.055-.195-.206-.281-.277-.35-.286-1.25-.904-1.508-.087-.166.515.245 1.023.385 1.284.104.183.238.389.312.595.041.135.055.278.098.42.098.35.19.738.319 1.063.069.167.14.342.227.492.049.087.134.127.153.27-.086.159-.092.396-.141.595-.22.896-.135 2.006.177 2.664.099.198.33.635.644.468.276-.143.214-.595.294-.991.019-.095.006-.159.043-.222v.016l.251.658c.19.389.521.793.797 1.063.147.143.263.389.447.476v-.024h-.012c-.037-.071-.092-.103-.141-.159a3.755 3.755 0 01-.319-.476 11.083 11.083 0 01-.686-1.443c-.098-.246-.184-.515-.263-.761-.037-.096-.037-.239-.099-.286-.092.174-.226.325-.294.54-.116.34-.128.76-.171 1.197-.025.008-.014 0-.025.016-.196-.063-.264-.325-.337-.547-.184-.563-.215-1.467-.055-2.118.043-.166.227-.69.153-.848-.037-.151-.16-.238-.227-.357-.08-.15-.165-.341-.22-.508-.147-.444-.22-.936-.38-1.38-.074-.206-.202-.42-.307-.61-.116-.214-.244-.365-.337-.619-.03-.087-.073-.23-.024-.325.012-.064.037-.087.086-.103.08-.087.306.024.386.07.226.12.416.23.606.397.086.08.178.23.288.27h.13c.195.056.416.016.6.087.324.135.619.333.882.548.803.658 1.465 1.594 1.912 2.712.074.183.104.349.172.54.129.388.288.784.416 1.165.13.373.252.754.436 1.063.092.167.46.254.625.341.122.071.312.135.423.223.208.166.416.356.612.539.098.095.405.293.423.451zM22.28 8.7a.766.766 0 00-.251.04v.015h.012c.05.127.135.215.196.326l.141.38.012-.015c.086-.08.13-.207.13-.397-.038-.055-.044-.111-.074-.166-.037-.08-.117-.12-.166-.183z" clip-rule="evenodd"/>
  <path fill="#CE8B2C" fill-rule="evenodd" d="M15.733 21.516h2.304c.27 0 .527-.071.736-.198.349-.207.514-.484.514-.849v-.761c0-.293-.19-.571-.57-.761a1.603 1.603 0 00-.68-.151h-.968c-.325 0-.478-.127-.521-.404-.006-.032-.006-.064-.006-.096v-.468c0-.024 0-.055.006-.087.043-.214.129-.27.412-.309h2.36v-.69h-2.244c-.325 0-.496.024-.65.087-.471.19-.68.492-.68 1.023v.603c0 .468.405.865 1.091.96.074.008.153.008.233.008h.827c.031 0 .062 0 .086.008.251.031.362.087.435.206.05.063.062.119.062.19v.603a.387.387 0 01-.11.245.493.493 0 01-.344.143c-.03 0-.049.008-.08.008h-2.213v.69zm8.543-1.197c0 .705.412 1.102 1.232 1.181.08.008.153.016.232.016h2.084v-.69h-2.102c-.466 0-.644-.15-.644-.515v-3.57h-.804v3.578h.002zm-4.48.03v-2.457c0-.627.343-1.008 1.011-1.127.074-.008.147-.016.214-.016h1.52c.08 0 .147.008.227.016.668.12 1.005.5 1.005 1.127v2.458c0 .507-.141.777-.472.96l.784.92h-.925l-.637-.746-.644.048h-.858a1.479 1.479 0 01-.466-.08c-.508-.182-.76-.53-.76-1.102zm.864-.054c0 .031.013.063.018.103.043.285.251.444.57.444h.723l-.662-.777h.926l.582.682c.11-.08.178-.19.202-.333.006-.032.006-.072.006-.104v-2.355c0-.032 0-.063-.006-.095-.043-.27-.25-.42-.564-.42h-1.207c-.355 0-.588.198-.588.515v2.34z" clip-rule="evenodd"/>
  <path fill="#fff" d="M49.072 22h-2.337v-6.284c0-.679.03-1.428.088-2.249h-.059c-.122.645-.231 1.109-.33 1.392L43.975 22H42.04l-2.505-7.068c-.068-.19-.178-.679-.33-1.465h-.065c.063 1.035.095 1.944.095 2.725V22h-2.131V11.497h3.464l2.146 6.226c.171.498.296.998.374 1.501h.044a15.11 15.11 0 01.417-1.516l2.146-6.21h3.377V22zm9.745-7.5l-3.047 8.1c-.732 1.949-1.836 2.923-3.31 2.923-.562 0-1.023-.064-1.385-.19v-1.846c.308.18.642.27 1.004.27.596 0 1.01-.28 1.245-.841l.395-.93-3.047-7.486h2.564l1.399 4.563c.088.283.156.618.205 1.003h.03c.043-.283.124-.612.241-.988l1.414-4.578h2.292zm1.118 7.097v-2.344c.424.357.886.625 1.384.806a4.505 4.505 0 001.509.264c.297 0 .556-.027.776-.08a1.84 1.84 0 00.557-.22c.151-.098.263-.21.337-.337a.91.91 0 00-.066-.974 1.87 1.87 0 00-.484-.447c-.2-.137-.44-.269-.718-.396a24.901 24.901 0 00-.9-.388c-.82-.342-1.433-.76-1.839-1.253-.4-.493-.6-1.088-.6-1.787 0-.546.11-1.015.33-1.406a2.8 2.8 0 01.893-.974c.38-.254.82-.44 1.318-.557a6.625 6.625 0 011.582-.183c.547 0 1.03.034 1.45.103.425.063.816.163 1.172.3v2.19a4.116 4.116 0 00-1.216-.55c-.22-.063-.439-.11-.659-.138a4.558 4.558 0 00-.615-.044c-.269 0-.513.027-.732.08-.22.049-.406.12-.557.213a1.06 1.06 0 00-.352.337.772.772 0 00-.124.432.85.85 0 00.139.476c.093.136.225.268.395.395.171.122.379.244.623.366.244.118.52.24.828.367.42.175.796.363 1.128.564a3.9 3.9 0 01.864.666 2.6 2.6 0 01.55.857c.126.317.19.689.19 1.113 0 .586-.113 1.08-.337 1.48-.22.395-.52.718-.901.967-.381.244-.825.42-1.333.527a7.633 7.633 0 01-1.597.161 8.955 8.955 0 01-1.648-.146 4.962 4.962 0 01-1.347-.44zm14.037.586c-1.504 0-2.73-.488-3.677-1.465-.947-.986-1.42-2.263-1.42-3.83 0-1.656.48-2.998 1.442-4.029.957-1.025 2.232-1.538 3.823-1.538 1.5 0 2.71.491 3.633 1.473.928.976 1.392 2.27 1.392 3.881 0 1.646-.481 2.976-1.443 3.992a1.852 1.852 0 00-.095.102c-.03.03-.061.06-.095.088l2.658 2.557h-3.31L75.488 22a5.89 5.89 0 01-1.516.183zm.103-8.826c-.826 0-1.485.313-1.978.938-.488.62-.732 1.443-.732 2.468 0 1.04.244 1.863.732 2.468.488.606 1.128.909 1.919.909.815 0 1.462-.293 1.94-.88.48-.595.719-1.413.719-2.453 0-1.084-.232-1.931-.696-2.541-.46-.606-1.094-.909-1.904-.909zM87.877 22h-6.255V11.497h2.365v8.584h3.89V22z"/>
  <path fill="url(#paint0_linear_13_129)" d="M88 0H5a5 5 0 00-5 5v22a5 5 0 005 5h83a5 5 0 005-5V5a5 5 0 00-5-5z"/>
  <defs>
    <linearGradient id="paint0_linear_13_129" x1="0" x2="0" y1="0" y2="32" gradientUnits="userSpaceOnUse">
      <stop stop-color="#BBB" stop-opacity=".1"/>
      <stop offset="1" stop-opacity=".1"/>
    </linearGradient>
  </defs>
</svg>
