<svg xmlns="http://www.w3.org/2000/svg" width="107" height="32" fill="none" viewBox="0 0 107 32">
  <path fill="#0F1418" d="M102 0H31v32h71a5 5 0 005-5V5a5 5 0 00-5-5z"/>
  <path fill="#fff" stroke="#1C2125" d="M5 .5h25.5v31H5A4.5 4.5 0 01.5 27V5A4.5 4.5 0 015 .5z"/>
  <g clip-path="url(#clip0_2_85)">
    <path fill="#539E43" d="M15.853 24.9a.515.515 0 01-.246-.065l-.78-.464c-.118-.064-.06-.088-.024-.1.158-.053.188-.064.352-.158.018-.012.041-.006.059.006l.598.358c.024.011.053.011.07 0l2.342-1.356c.024-.012.036-.035.036-.065v-2.705c0-.03-.012-.053-.036-.065l-2.341-1.35c-.024-.012-.053-.012-.07 0l-2.342 1.35c-.024.012-.036.041-.036.065v2.705c0 .024.012.053.036.065l.64.37c.346.176.563-.03.563-.235v-2.67c0-.036.03-.07.07-.07h.3c.035 0 .07.028.07.07v2.67c0 .464-.253.734-.693.734-.135 0-.24 0-.54-.147l-.616-.352a.495.495 0 01-.246-.429v-2.705c0-.176.094-.34.246-.429l2.342-1.356a.524.524 0 01.493 0l2.342 1.356a.495.495 0 01.246.429v2.705c0 .176-.094.34-.246.429L16.1 24.846a.6.6 0 01-.247.053zm.722-1.861c-1.027 0-1.238-.47-1.238-.869 0-.035.03-.07.07-.07h.306c.035 0 .064.023.064.058.047.311.182.464.804.464.493 0 .704-.111.704-.376 0-.152-.058-.264-.827-.34-.64-.064-1.039-.205-1.039-.716 0-.475.4-.757 1.068-.757.752 0 1.121.258 1.168.822a.095.095 0 01-.017.052c-.012.012-.03.024-.047.024h-.306a.069.069 0 01-.064-.053c-.07-.323-.252-.428-.734-.428-.54 0-.604.187-.604.328 0 .17.076.223.804.317.722.094 1.062.23 1.062.734-.006.516-.428.81-1.174.81z"/>
    <path fill="#333" d="M8.587 14.317a.299.299 0 00-.152-.258l-2.489-1.432a.362.362 0 00-.135-.041h-.023a.279.279 0 00-.135.041L3.164 14.06a.298.298 0 00-.152.258l.006 3.85c0 .053.029.106.076.13.047.029.106.029.147 0l1.479-.846a.299.299 0 00.152-.258v-1.802c0-.105.059-.205.153-.258l.628-.364c.047-.029.1-.04.152-.04.053 0 .106.011.147.04l.628.364a.299.299 0 01.153.259v1.801c0 .106.058.206.152.258l1.48.846c.046.029.105.029.152 0a.146.146 0 00.076-.13l-.006-3.85zM20.549 9.018a.161.161 0 00-.147 0 .153.153 0 00-.076.129v3.815c0 .035-.018.07-.053.094a.112.112 0 01-.106 0l-.622-.358a.303.303 0 00-.3 0l-2.488 1.437a.299.299 0 00-.152.259v2.87c0 .105.058.205.152.258l2.488 1.438a.302.302 0 00.3 0l2.488-1.438a.299.299 0 00.153-.258v-7.155a.301.301 0 00-.153-.264l-1.485-.827zm-.23 7.3c0 .03-.011.053-.035.065l-.85.493a.087.087 0 01-.077 0l-.85-.493c-.024-.011-.036-.04-.036-.064v-.986c0-.03.012-.053.035-.065l.851-.493a.087.087 0 01.076 0l.851.493c.024.012.036.041.036.065v.986zM28.83 15.31a.293.293 0 00.147-.259v-.698a.306.306 0 00-.147-.259l-2.47-1.432a.302.302 0 00-.3 0L23.57 14.1a.298.298 0 00-.152.258v2.87c0 .106.058.206.152.259l2.471 1.408a.292.292 0 00.294 0l1.496-.833a.146.146 0 00.076-.13.146.146 0 00-.076-.128l-2.5-1.438a.153.153 0 01-.076-.13v-.897c0-.053.029-.106.076-.13l.78-.445a.143.143 0 01.153 0l.78.446c.048.029.077.076.077.129v.704c0 .053.03.106.076.129.047.03.106.03.153 0l1.479-.863z"/>
    <path fill="#539E43" d="M26.171 15.174a.053.053 0 01.059 0l.475.276c.018.012.03.03.03.053v.552a.062.062 0 01-.03.052l-.475.276a.053.053 0 01-.059 0l-.475-.276a.062.062 0 01-.03-.052v-.552c0-.024.012-.041.03-.053l.475-.276z"/>
    <mask id="a" width="7" height="7" x="9" y="12" maskUnits="userSpaceOnUse" style="mask-type:alpha">
      <path fill="#fff" d="M12.748 12.674a.303.303 0 00-.299 0L9.98 14.1a.293.293 0 00-.147.258v2.859c0 .105.058.205.146.258L12.45 18.9a.302.302 0 00.3 0l2.47-1.426a.293.293 0 00.147-.258v-2.858a.306.306 0 00-.147-.259l-2.47-1.426z"/>
    </mask>
    <g mask="url(#a)">
      <path fill="url(#paint0_linear_2_85)" d="M12.748 12.674a.303.303 0 00-.299 0L9.98 14.1a.293.293 0 00-.147.258v2.859c0 .105.058.205.146.258L12.45 18.9a.302.302 0 00.3 0l2.47-1.426a.293.293 0 00.147-.258v-2.858a.306.306 0 00-.147-.259l-2.47-1.426z"/>
      <path fill="url(#paint1_linear_2_85)" d="M15.225 14.1l-2.482-1.426a.41.41 0 00-.077-.03L9.884 17.41c.023.029.051.052.083.07l2.482 1.427c.07.041.153.053.229.03l2.612-4.778a.309.309 0 00-.065-.059z"/>
      <path fill="url(#paint2_linear_2_85)" fill-rule="evenodd" d="M15.231 17.475a.334.334 0 00.147-.188l-2.724-4.648a.298.298 0 00-.21.035l-2.466 1.42 2.659 4.848a.413.413 0 00.111-.035l2.483-1.432z" clip-rule="evenodd"/>
      <path fill="url(#paint3_linear_2_85)" fill-rule="evenodd" d="M15.231 17.475l-2.477 1.426a.351.351 0 01-.111.035l.047.088 2.747-1.59v-.035l-.071-.118a.272.272 0 01-.135.194z" clip-rule="evenodd"/>
      <path fill="url(#paint4_linear_2_85)" fill-rule="evenodd" d="M15.231 17.475l-2.477 1.426a.351.351 0 01-.111.035l.047.088 2.747-1.59v-.035l-.071-.118a.272.272 0 01-.135.194z" clip-rule="evenodd"/>
    </g>
  </g>
  <path fill="#fff" d="M52.427 22H50.04l-4.329-6.6a9.568 9.568 0 01-.527-.87h-.03c.04.37.059.937.059 1.699V22h-2.234V11.497h2.549l4.167 6.394c.19.288.367.574.528.857h.029c-.04-.244-.059-.725-.059-1.443v-5.808h2.234V22zm6.194.183c-1.25 0-2.234-.349-2.952-1.047-.713-.703-1.07-1.655-1.07-2.857 0-1.24.372-2.21 1.114-2.907.742-.704 1.745-1.055 3.01-1.055 1.245 0 2.222.351 2.93 1.055.708.698 1.062 1.623 1.062 2.776 0 1.245-.367 2.229-1.099 2.951-.727.723-1.726 1.084-2.995 1.084zm.058-6.094c-.547 0-.972.188-1.274.564-.303.376-.455.909-.455 1.597 0 1.44.582 2.16 1.744 2.16 1.108 0 1.662-.74 1.662-2.219 0-1.401-.559-2.102-1.677-2.102zM71.735 22h-2.314v-1.033h-.03c-.527.81-1.301 1.216-2.322 1.216-.937 0-1.691-.33-2.263-.989-.571-.664-.857-1.589-.857-2.775 0-1.24.315-2.234.945-2.982.63-.747 1.455-1.12 2.476-1.12.967 0 1.64.347 2.021 1.04h.03v-4.46h2.314V22zm-2.27-3.648v-.563c0-.489-.142-.894-.425-1.216-.284-.323-.652-.484-1.106-.484-.513 0-.913.203-1.201.608-.288.4-.433.952-.433 1.655 0 .66.14 1.168.418 1.524.278.356.664.535 1.157.535.469 0 .85-.188 1.143-.564.298-.376.447-.874.447-1.495zm11.137.557h-4.893c.078 1.089.764 1.634 2.058 1.634.825 0 1.55-.196 2.175-.587v1.67c-.693.372-1.594.557-2.702.557-1.211 0-2.151-.334-2.82-1.003-.669-.674-1.004-1.612-1.004-2.813 0-1.245.362-2.231 1.085-2.959.722-.727 1.61-1.091 2.665-1.091 1.094 0 1.939.325 2.535.974.6.65.9 1.53.9 2.644v.974zm-2.146-1.42c0-1.075-.435-1.612-1.304-1.612-.371 0-.694.154-.967.461-.269.308-.432.691-.49 1.15h2.76zm4.735 4.694c-.38 0-.698-.117-.952-.352a1.13 1.13 0 01-.38-.864c0-.351.129-.64.387-.864.264-.225.591-.337.982-.337.395 0 .718.115.967.344.254.225.38.51.38.857 0 .357-.129.65-.388.88-.254.224-.586.336-.996.336zm4.392-8.87c-.391 0-.71-.114-.96-.344a1.132 1.132 0 01-.373-.857c0-.346.124-.63.373-.85.25-.219.569-.329.96-.329.395 0 .715.11.96.33.248.22.373.503.373.85 0 .35-.125.639-.374.864-.244.224-.564.336-.96.336zm1.142 8.555c0 1.109-.27 1.995-.813 2.659-.542.664-1.323.996-2.344.996a3.24 3.24 0 01-1.105-.22v-1.816c.322.18.607.27.857.27.727 0 1.09-.57 1.09-1.713V14.5h2.315v7.368zm1.638-.066v-1.875c.38.23.759.4 1.135.513.38.112.74.168 1.077.168.41 0 .732-.056.966-.168.24-.112.36-.283.36-.513a.475.475 0 00-.162-.366 1.485 1.485 0 00-.417-.256 4.47 4.47 0 00-.55-.198 6.726 6.726 0 01-.578-.198 6.051 6.051 0 01-.791-.359 2.44 2.44 0 01-.572-.454 1.857 1.857 0 01-.351-.593 2.436 2.436 0 01-.117-.798c0-.42.09-.782.27-1.084.186-.303.43-.55.733-.74a3.275 3.275 0 011.047-.425 5.37 5.37 0 011.231-.14c.332 0 .669.028 1.01.082.343.048.68.122 1.011.22v1.786a3.55 3.55 0 00-.944-.38 3.825 3.825 0 00-.982-.132c-.151 0-.295.014-.432.043a1.245 1.245 0 00-.352.118.61.61 0 00-.241.197.507.507 0 00.044.623c.088.098.202.183.344.256.142.069.298.132.469.19.175.055.349.11.52.17.307.107.586.224.835.35a2.6 2.6 0 01.637.448c.18.17.317.37.41.6.098.23.147.503.147.82 0 .445-.098.826-.293 1.143-.19.313-.447.569-.77.77a3.432 3.432 0 01-1.105.424c-.415.093-.847.14-1.297.14a6.7 6.7 0 01-2.292-.382z"/>
  <path fill="url(#paint5_linear_2_85)" d="M102 0H5a5 5 0 00-5 5v22a5 5 0 005 5h97a5 5 0 005-5V5a5 5 0 00-5-5z"/>
  <defs>
    <linearGradient id="paint0_linear_2_85" x1="13.605" x2="10.897" y1="13.737" y2="17.993" gradientUnits="userSpaceOnUse">
      <stop stop-color="#41873F"/>
      <stop offset=".329" stop-color="#418B3D"/>
      <stop offset=".635" stop-color="#419637"/>
      <stop offset=".932" stop-color="#3FA92D"/>
      <stop offset="1" stop-color="#3FAE2A"/>
    </linearGradient>
    <linearGradient id="paint1_linear_2_85" x1="12.224" x2="19.006" y1="16.122" y2="12.437" gradientUnits="userSpaceOnUse">
      <stop offset=".138" stop-color="#41873F"/>
      <stop offset=".403" stop-color="#54A044"/>
      <stop offset=".714" stop-color="#66B848"/>
      <stop offset=".908" stop-color="#6CC04A"/>
    </linearGradient>
    <linearGradient id="paint2_linear_2_85" x1="9.741" x2="15.459" y1="15.788" y2="15.788" gradientUnits="userSpaceOnUse">
      <stop offset=".092" stop-color="#6CC04A"/>
      <stop offset=".286" stop-color="#66B848"/>
      <stop offset=".597" stop-color="#54A044"/>
      <stop offset=".862" stop-color="#41873F"/>
    </linearGradient>
    <linearGradient id="paint3_linear_2_85" x1="9.741" x2="15.459" y1="18.158" y2="18.158" gradientUnits="userSpaceOnUse">
      <stop offset=".092" stop-color="#6CC04A"/>
      <stop offset=".286" stop-color="#66B848"/>
      <stop offset=".597" stop-color="#54A044"/>
      <stop offset=".862" stop-color="#41873F"/>
    </linearGradient>
    <linearGradient id="paint4_linear_2_85" x1="16.292" x2="14.843" y1="13.602" y2="21.192" gradientUnits="userSpaceOnUse">
      <stop stop-color="#41873F"/>
      <stop offset=".329" stop-color="#418B3D"/>
      <stop offset=".635" stop-color="#419637"/>
      <stop offset=".932" stop-color="#3FA92D"/>
      <stop offset="1" stop-color="#3FAE2A"/>
    </linearGradient>
    <linearGradient id="paint5_linear_2_85" x1="0" x2="0" y1="0" y2="32" gradientUnits="userSpaceOnUse">
      <stop stop-color="#BBB" stop-opacity=".1"/>
      <stop offset="1" stop-opacity=".1"/>
    </linearGradient>
    <clipPath id="clip0_2_85">
      <path fill="#fff" d="M0 0h26v15.945H0z" transform="translate(3 9)"/>
    </clipPath>
  </defs>
</svg>
