<svg xmlns="http://www.w3.org/2000/svg" width="87" height="32" fill="none" viewBox="0 0 87 32">
  <path fill="#0F1418" d="M82 0H31v32h51a5 5 0 005-5V5a5 5 0 00-5-5z"/>
  <path fill="#8993BE" d="M31 0H5a5 5 0 00-5 5v22a5 5 0 005 5h26V0z"/>
  <path fill="#fff" d="M16 10.33c6.427 0 11.37 2.708 11.37 5.681 0 2.974-4.946 5.682-11.37 5.682-6.428 0-11.37-2.708-11.37-5.682 0-2.973 4.946-5.68 11.37-5.68zm0-.63c-6.626 0-12 2.824-12 6.311 0 3.488 5.374 6.312 12 6.312s12-2.824 12-6.312c0-3.487-5.374-6.31-12-6.31zm-3.818 5.805c-.296 1.519-1.342 1.361-2.628 1.361l.514-2.647c1.425 0 2.392-.154 2.114 1.286zm-4.53 4.043H9.03l.326-1.68c1.541 0 2.497.112 3.383-.717.978-.9 1.233-2.5.536-3.303-.364-.42-.949-.627-1.744-.627H8.879l-1.226 6.327zm6.964-8.01h1.369l-.326 1.68c1.181 0 2.276-.087 2.805.4.555.51.289 1.163-.311 4.242h-1.388c.578-2.977.686-3.225.476-3.45-.202-.217-.663-.172-1.777-.172l-.705 3.622H13.39l1.226-6.322zm8.322 3.967c-.3 1.541-1.377 1.361-2.63 1.361l.515-2.647c1.432 0 2.392-.154 2.114 1.286zm-4.53 4.043h1.38l.326-1.68c1.62 0 2.516.093 3.382-.717.979-.9 1.234-2.5.537-3.303-.364-.42-.95-.627-1.744-.627h-2.652l-1.23 6.327zM46.896 18.382V22H44.53V11.497h3.706c2.647 0 3.97 1.116 3.97 3.347 0 1.055-.38 1.91-1.142 2.564-.757.65-1.77.974-3.04.974h-1.128zm0-5.069v3.274h.93c1.26 0 1.89-.551 1.89-1.655 0-1.079-.63-1.619-1.89-1.619h-.93zM63.541 22h-2.373v-4.277h-4.35V22h-2.366V11.497h2.365v4.19h4.351v-4.19h2.373V22zm5.483-3.618V22h-2.366V11.497h3.706c2.647 0 3.97 1.116 3.97 3.347 0 1.055-.381 1.91-1.143 2.564-.757.65-1.77.974-3.04.974h-1.127zm0-5.069v3.274h.93c1.26 0 1.89-.551 1.89-1.655 0-1.079-.63-1.619-1.89-1.619h-.93z"/>
  <path fill="url(#paint0_linear_4_191)" d="M82 0H5a5 5 0 00-5 5v22a5 5 0 005 5h77a5 5 0 005-5V5a5 5 0 00-5-5z"/>
  <defs>
    <linearGradient id="paint0_linear_4_191" x1="0" x2="0" y1="0" y2="32" gradientUnits="userSpaceOnUse">
      <stop stop-color="#BBB" stop-opacity=".1"/>
      <stop offset="1" stop-opacity=".1"/>
    </linearGradient>
  </defs>
</svg>
