<svg xmlns="http://www.w3.org/2000/svg" width="130" height="33" fill="none" viewBox="0 0 130 33">
  <path fill="#0F1418" d="M125 0H31v32h94a5 5 0 005-5V5a5 5 0 00-5-5z"/>
  <path fill="#fff" d="M52.89 18.382V22h-2.366V11.497h3.706c2.647 0 3.97 1.116 3.97 3.347 0 1.055-.381 1.91-1.143 2.564-.757.65-1.77.974-3.04.974H52.89zm0-5.069v3.274h.93c1.26 0 1.89-.551 1.89-1.655 0-1.079-.63-1.619-1.89-1.619h-.93zm10.185 8.87c-1.25 0-2.234-.349-2.952-1.047-.713-.703-1.07-1.655-1.07-2.857 0-1.24.372-2.21 1.114-2.907.742-.704 1.745-1.055 3.01-1.055 1.245 0 2.222.351 2.93 1.055.708.698 1.062 1.623 1.062 2.776 0 1.245-.366 2.229-1.099 2.951-.727.723-1.726 1.084-2.995 1.084zm.058-6.094c-.547 0-.972.188-1.274.564-.303.376-.454.909-.454 1.597 0 1.44.58 2.16 1.743 2.16 1.108 0 1.662-.74 1.662-2.219 0-1.401-.559-2.102-1.677-2.102zm5.227 5.713v-1.875c.38.23.759.4 1.135.513.38.112.74.168 1.076.168.41 0 .733-.056.967-.168.24-.112.36-.283.36-.513a.475.475 0 00-.162-.366 1.485 1.485 0 00-.418-.256 4.47 4.47 0 00-.549-.198 6.726 6.726 0 01-.578-.198 6.051 6.051 0 01-.791-.359 2.44 2.44 0 01-.572-.454 1.855 1.855 0 01-.351-.593 2.436 2.436 0 01-.117-.798c0-.42.09-.782.27-1.084.186-.303.43-.55.733-.74a3.275 3.275 0 011.047-.425 5.37 5.37 0 011.23-.14c.333 0 .67.028 1.011.082.342.048.68.122 1.011.22v1.786a3.55 3.55 0 00-.945-.38 3.825 3.825 0 00-.981-.132c-.151 0-.295.014-.432.043a1.245 1.245 0 00-.352.118.61.61 0 00-.241.197.507.507 0 00.044.623c.087.098.202.183.344.256.141.069.298.132.469.19.175.055.349.11.52.17.307.107.586.224.835.35.249.128.461.277.637.448.18.17.317.37.41.6.098.23.146.503.146.82 0 .445-.097.826-.293 1.143-.19.313-.446.569-.769.77a3.432 3.432 0 01-1.106.424c-.415.093-.847.14-1.296.14a6.7 6.7 0 01-2.292-.382zm11.81.11c-.341.18-.856.271-1.545.271-1.63 0-2.446-.847-2.446-2.541v-3.436h-1.216V14.5h1.216v-1.619l2.307-.659V14.5h1.684v1.706h-1.684v3.033c0 .781.31 1.172.93 1.172.244 0 .496-.071.754-.213v1.714zm13.4.088h-2.306v-4.277c0-1.09-.4-1.634-1.202-1.634-.38 0-.69.164-.93.491-.24.327-.359.735-.359 1.223V22H86.46v-4.321c0-1.06-.393-1.59-1.18-1.59a1.14 1.14 0 00-.951.47c-.235.312-.352.736-.352 1.273V22H81.66v-7.5h2.315v1.172h.03c.239-.4.573-.725 1.003-.974.434-.254.908-.381 1.42-.381 1.06 0 1.785.466 2.176 1.399.571-.933 1.41-1.4 2.52-1.4 1.63 0 2.446 1.007 2.446 3.018V22zm8.252 0h-2.19v-1.077h-.03c-.502.84-1.247 1.26-2.233 1.26-.728 0-1.302-.205-1.721-.615-.415-.415-.623-.967-.623-1.655 0-1.456.862-2.295 2.585-2.52l2.037-.27c0-.821-.445-1.231-1.333-1.231-.894 0-1.744.266-2.55.798v-1.743c.323-.166.763-.313 1.32-.44a7.002 7.002 0 011.53-.19c2.139 0 3.208 1.067 3.208 3.2V22zm-2.175-3.047v-.505l-1.363.175c-.752.098-1.128.438-1.128 1.019 0 .263.09.48.271.652.186.165.435.248.747.248.435 0 .789-.148 1.063-.446.273-.303.41-.684.41-1.143zM111.077 22h-2.308v-4.168c0-1.162-.415-1.743-1.245-1.743-.4 0-.73.154-.988.462-.259.307-.389.698-.389 1.172V22h-2.314v-7.5h2.314v1.187h.03c.551-.914 1.355-1.37 2.409-1.37 1.661 0 2.491 1.03 2.491 3.09V22z"/>
  <path fill="url(#paint0_linear_9_33)" d="M125 0H5a5 5 0 00-5 5v22a5 5 0 005 5h120a5 5 0 005-5V5a5 5 0 00-5-5z"/>
  <path fill="#FF6C37" d="M0 4a4 4 0 014-4h27v32H4a4 4 0 01-4-4V4z"/>
  <g clip-path="url(#clip0_9_33)">
    <path fill="#FF6C37" d="M27.08 6.442a14 14 0 10-2.52 19.635c6.116-4.726 7.245-13.516 2.52-19.635z"/>
    <path fill="#fff" d="M20.722 11.194l-5.903 6.8-1.668-1.96c5.81-6.64 6.393-6.04 7.571-4.84z"/>
    <path fill="#FF6C37" d="M14.819 18.18a.198.198 0 01-.14-.067l-1.68-1.92a.259.259 0 01-.06-.166c0-.063.022-.122.06-.167 5.728-6.546 6.51-6.24 7.863-4.84a.227.227 0 01.07.174.202.202 0 01-.058.173l-5.903 6.747a.207.207 0 01-.152.066zm-1.377-2.146l1.377 1.573 5.6-6.4a1.24 1.24 0 00-.775-.522c-.306-.059-.62.013-.882.202-1.015.52-2.648 2.106-5.32 5.146z"/>
    <path fill="#fff" d="M16.51 19.874l-1.61-1.88 5.904-6.667c1.587 1.774-.77 4.734-4.293 8.546v.001z"/>
    <path fill="#FF6C37" d="M16.51 20.114a.23.23 0 01-.14-.067l-1.644-1.84a.317.317 0 010-.213.293.293 0 010-.174l5.903-6.746a.202.202 0 01.303 0c.387.407.6.986.583 1.587 0 1.8-1.797 4.066-4.853 7.373a.233.233 0 01-.152.08zm-1.306-2.12l1.318 1.506c2.333-2.52 4.562-5.12 4.573-6.88a1.664 1.664 0 00-.303-1.026l-5.588 6.4z"/>
    <path fill="#fff" d="M13.197 16.074l1.167 1.333a.078.078 0 01.017.028.09.09 0 01-.017.093l-2.462.6c-.102.024-.206-.032-.255-.137a.295.295 0 01.045-.317l1.435-1.627s.047 0 .07.027z"/>
    <path fill="#FF6C37" d="M11.844 18.394a.413.413 0 01-.222-.07.49.49 0 01-.163-.184.562.562 0 01.082-.6l1.423-1.64a.261.261 0 01.186-.08c.07 0 .136.028.187.08l1.167 1.334c.069.075.096.188.07.293a.29.29 0 01-.198.214l-2.462.6-.07.053zm1.307-2.026l-1.319 1.506 2.182-.534-.863-.973z"/>
    <path fill="#fff" d="M23.86 7.447c-.844-.931-2.17-.97-3.056-.091-.885.878-1.037 2.386-.347 3.471s1.99 1.389 2.995.7l-1.586-1.813 1.995-2.267z"/>
    <path fill="#FF6C37" d="M22.286 12.14a2.264 2.264 0 01-1.36-.49 2.784 2.784 0 01-.896-1.264c-.376-1.049-.168-2.253.525-3.059.467-.524 1.095-.818 1.75-.818.654 0 1.283.294 1.75.818.044.043.07.107.07.173a.257.257 0 01-.019.096.23.23 0 01-.051.078l-1.89 2.04 1.435 1.614c.023.025.04.056.05.091.01.035.013.072.008.108a.264.264 0 01-.03.1.228.228 0 01-.063.074 2.314 2.314 0 01-1.283.44l.004-.001zm0-5.174c-.832.005-1.575.577-1.887 1.45-.312.874-.143 1.88.44 2.55.593.682 1.488.878 2.263.494l-1.376-1.574a.227.227 0 01-.07-.173.224.224 0 01.07-.16l1.82-2.094a1.932 1.932 0 00-1.26-.493z"/>
    <path fill="#fff" d="M23.896 7.487L21.9 9.754l1.586 1.813c.16-.105.309-.23.444-.373.864-1.05.848-2.685-.035-3.707z"/>
    <path fill="#FF6C37" d="M23.452 11.767a.156.156 0 01-.077-.015.178.178 0 01-.063-.052l-1.587-1.813a.227.227 0 01-.07-.174.225.225 0 01.07-.16l1.983-2.226a.224.224 0 01.076-.079.19.19 0 01.199 0c.03.019.056.046.075.079.233.26.418.572.544.915a3.15 3.15 0 010 2.17 2.85 2.85 0 01-.544.915c-.137.166-.294.31-.466.427a.167.167 0 01-.14.013zm-1.283-2.053l1.318 1.506c.09-.072.177-.152.257-.24a2.54 2.54 0 00.607-1.666c0-.56-.178-1.1-.502-1.52l-1.68 1.92z"/>
    <path fill="#fff" d="M20.967 11.474a.777.777 0 00-1.167 0L14.516 17.5l.875 1.014 5.588-5.6c.173-.189.27-.45.267-.723a1.057 1.057 0 00-.28-.718v.001z"/>
    <path fill="#FF6C37" d="M15.344 18.754a.198.198 0 01-.14-.067l-.887-1.013a.259.259 0 01-.059-.167c0-.062.021-.122.059-.167l5.285-6.013c.42-.478 1.098-.478 1.517 0 .21.24.323.568.315.906a1.335 1.335 0 01-.362.88l-5.588 5.6a.18.18 0 01-.14.04v.001zm-.618-1.254l.583.68 5.483-5.454a.781.781 0 00.222-.533.77.77 0 00-.198-.546.597.597 0 00-.922 0L14.726 17.5z"/>
    <path fill="#fff" d="M10.42 24.367a.148.148 0 00-.022.08c0 .029.008.057.023.08l.233 1.16a.362.362 0 01-.146.35.256.256 0 01-.333-.038l-1.598-1.76 4.982-5.739h1.727l1.166 1.334a26.475 26.475 0 01-6.031 4.533z"/>
    <path fill="#FF6C37" d="M10.316 26.327a.466.466 0 01-.35-.174l-1.529-1.746a.227.227 0 01-.07-.174.225.225 0 01.07-.16l5.017-5.746a.191.191 0 01.105-.067h1.738a.185.185 0 01.14 0l1.167 1.334a.231.231 0 01.058.186.24.24 0 01-.017.097.213.213 0 01-.053.077l-.093.093a28.44 28.44 0 01-5.985 4.387l.222 1.08a.656.656 0 01-.092.483.525.525 0 01-.171.162.454.454 0 01-.216.062l.059.106zm-1.424-2.094l1.377 1.587c.013.013.03.02.046.02a.065.065 0 00.047-.02.088.088 0 00.013-.047.088.088 0 00-.013-.046l-.233-1.16c-.038-.172.035-.35.175-.427a28.557 28.557 0 005.833-4.294l-.957-1.093h-1.563l-4.725 5.48z"/>
    <path fill="#fff" d="M7.376 25.607l1.166-1.334 1.797 2.054-2.858-.227c-.1-.008-.186-.09-.21-.203a.282.282 0 01.105-.29z"/>
    <path fill="#FF6C37" d="M10.374 26.527L7.527 26.3c-.169-.018-.314-.15-.374-.326a.565.565 0 01.094-.527l1.167-1.334a.197.197 0 01.146-.067c.054 0 .106.024.146.067l1.785 2.04c.05.08.05.188 0 .267a.23.23 0 01-.117.106v.001zm-2.847-.747l2.333.174-1.283-1.373-1.05 1.2z"/>
    <path fill="#fff" d="M15.449 18.661l-2.357.413 1.365-1.546.992 1.133z"/>
    <path fill="#FF6C37" d="M13.092 19.327c-.08.002-.153-.05-.187-.134a.247.247 0 01-.038-.133c0-.048.013-.094.038-.133l1.353-1.56a.202.202 0 01.304 0l.992 1.133a.248.248 0 010 .24.244.244 0 01-.06.114.197.197 0 01-.103.06l-2.334.413h.035zm1.365-1.454l-.758.867 1.307-.226-.55-.64z"/>
    <path fill="#fff" d="M15.449 18.66l-1.645.24a.186.186 0 01-.132-.014.224.224 0 01-.098-.102.27.27 0 01.032-.284l.851-.974.992 1.134z"/>
    <path fill="#FF6C37" d="M13.757 19.154a.427.427 0 01-.373-.253.538.538 0 01.07-.574l.852-.974a.202.202 0 01.303 0l.992 1.134a.25.25 0 01.06.118.274.274 0 01-.007.136.242.242 0 01-.07.11.195.195 0 01-.112.05l-1.633.24-.082.013zm0-.494l1.237-.173-.548-.627-.7.8h.01zm10.15-9.64a.18.18 0 00-.098-.088.155.155 0 00-.124.008.168.168 0 00-.05.046.213.213 0 00-.02.208.641.641 0 01-.058.6.183.183 0 00-.044.127c0 .046.016.091.044.126.03.013.063.013.093 0a.135.135 0 00.083-.003.153.153 0 00.069-.05 1.037 1.037 0 00.105-.973z"/>
  </g>
  <defs>
    <linearGradient id="paint0_linear_9_33" x1="0" x2="0" y1="0" y2="32" gradientUnits="userSpaceOnUse">
      <stop stop-color="#BBB" stop-opacity=".1"/>
      <stop offset="1" stop-opacity=".1"/>
    </linearGradient>
    <clipPath id="clip0_9_33">
      <path fill="#fff" d="M0 0h28v32H0z" transform="translate(2 1)"/>
    </clipPath>
  </defs>
</svg>
