<svg xmlns="http://www.w3.org/2000/svg" width="121" height="32" fill="none" viewBox="0 0 121 32">
  <path fill="#0F1418" d="M116 0H31v32h85a5 5 0 005-5V5a5 5 0 00-5-5z"/>
  <path fill="url(#paint0_linear_4_167)" d="M31 0H5a5 5 0 00-5 5v22a5 5 0 005 5h26V0z"/>
  <path fill="#000" d="M27 5H5v22h22V5z"/>
  <path fill="#fff" d="M15.338 22.875h-8.25v1.375h8.25v-1.375zM6.986 7.902h3.718c2.19 0 3.514 1.274 3.514 3.158v.05c0 2.089-1.63 3.209-3.667 3.209H9.023v2.7H7.037V7.901h-.05zm3.616 4.584c1.018 0 1.579-.611 1.579-1.375v-.051c0-.917-.612-1.375-1.63-1.375H9.023v2.8h1.579zM15.033 12.486c0-2.597 1.935-4.736 4.736-4.736 1.731 0 2.75.56 3.615 1.426l-1.273 1.477c-.713-.662-1.426-1.019-2.342-1.019-1.528 0-2.648 1.274-2.648 2.852v-.05c0 1.578 1.069 2.851 2.648 2.851 1.018 0 1.68-.407 2.393-1.07l1.273 1.274c-.916 1.018-1.986 1.63-3.717 1.63-2.7.05-4.685-2.037-4.685-4.635zM47.005 17.382V21H44.64V10.497h3.706c2.646 0 3.97 1.116 3.97 3.347 0 1.055-.381 1.91-1.143 2.564-.757.65-1.77.974-3.04.974h-1.128zm0-5.069v3.274h.93c1.26 0 1.89-.551 1.89-1.655 0-1.079-.63-1.619-1.89-1.619h-.93zM61.211 13.5l-3.047 8.1c-.732 1.949-1.836 2.923-3.31 2.923-.562 0-1.023-.064-1.384-.19v-1.846c.307.18.642.27 1.003.27.596 0 1.01-.28 1.245-.841l.396-.93-3.047-7.486h2.563l1.4 4.563c.087.283.155.618.204 1.003h.03c.043-.283.124-.612.241-.988L58.92 13.5h2.292zm9.13 7.127c-.766.37-1.767.556-3.002.556-1.612 0-2.879-.474-3.802-1.42-.923-.948-1.384-2.21-1.384-3.787 0-1.68.518-3.042 1.553-4.087 1.04-1.045 2.387-1.568 4.043-1.568 1.025 0 1.89.13 2.593.389v2.277c-.704-.42-1.504-.63-2.403-.63-.986 0-1.782.31-2.388.93-.605.62-.908 1.46-.908 2.52 0 1.016.286 1.826.857 2.432.572.6 1.34.9 2.307.9.923 0 1.768-.224 2.534-.673v2.16zM79.59 21h-2.307v-4.263c0-1.098-.4-1.648-1.201-1.648-.41 0-.743.154-.996.462-.254.307-.381.698-.381 1.172V21h-2.315V9.896h2.315v4.717h.029c.566-.864 1.335-1.296 2.307-1.296 1.7 0 2.549 1.025 2.549 3.076V21zm8.258 0h-2.19v-1.077h-.029c-.503.84-1.247 1.26-2.234 1.26-.727 0-1.3-.205-1.72-.615-.416-.415-.623-.967-.623-1.655 0-1.456.861-2.295 2.585-2.52l2.036-.27c0-.821-.444-1.231-1.333-1.231-.893 0-1.743.266-2.549.798v-1.743c.323-.166.762-.313 1.319-.44a7 7 0 011.53-.19c2.14 0 3.209 1.067 3.209 3.2V21zm-2.175-3.047v-.505l-1.362.175c-.752.098-1.128.438-1.128 1.019 0 .263.09.48.27.652.186.165.436.248.748.248.435 0 .789-.148 1.062-.446.273-.303.41-.684.41-1.143zm9.08-2.366a2.007 2.007 0 00-.975-.227c-.503 0-.896.186-1.18.557-.282.366-.424.867-.424 1.502V21h-2.314v-7.5h2.314v1.392h.03c.365-1.016 1.025-1.524 1.977-1.524.244 0 .434.03.571.088v2.131zM107.967 21h-2.307v-4.277c0-1.09-.4-1.634-1.201-1.634-.381 0-.691.164-.93.491-.24.327-.359.735-.359 1.223V21h-2.315v-4.321c0-1.06-.393-1.59-1.179-1.59a1.14 1.14 0 00-.952.47c-.234.312-.351.736-.351 1.274V21h-2.315v-7.5h2.315v1.172h.029c.24-.4.573-.725 1.003-.974.435-.254.908-.381 1.421-.381 1.06 0 1.785.466 2.175 1.399.572-.933 1.412-1.4 2.52-1.4 1.631 0 2.446 1.007 2.446 3.018V21z"/>
  <path fill="url(#paint1_linear_4_167)" d="M116 0H5a5 5 0 00-5 5v22a5 5 0 005 5h111a5 5 0 005-5V5a5 5 0 00-5-5z"/>
  <defs>
    <linearGradient id="paint0_linear_4_167" x1="9.514" x2="16.124" y1="37.113" y2="5.455" gradientUnits="userSpaceOnUse">
      <stop stop-color="#21D789"/>
      <stop offset=".164" stop-color="#24D788"/>
      <stop offset=".305" stop-color="#2FD886"/>
      <stop offset=".437" stop-color="#41DA82"/>
      <stop offset=".564" stop-color="#5ADC7D"/>
      <stop offset=".688" stop-color="#7AE077"/>
      <stop offset=".809" stop-color="#A1E36E"/>
      <stop offset=".925" stop-color="#CFE865"/>
      <stop offset="1" stop-color="#F1EB5E"/>
    </linearGradient>
    <linearGradient id="paint1_linear_4_167" x1="0" x2="0" y1="0" y2="32" gradientUnits="userSpaceOnUse">
      <stop stop-color="#BBB" stop-opacity=".1"/>
      <stop offset="1" stop-opacity=".1"/>
    </linearGradient>
  </defs>
</svg>
