<svg xmlns="http://www.w3.org/2000/svg" width="148" height="32" fill="none" viewBox="0 0 148 32">
  <path fill="#0F1418" d="M143 0H31v32h112a5 5 0 005-5V5a5 5 0 00-5-5z"/>
  <path fill="#FF0050" d="M31 0H5a5 5 0 00-5 5v22a5 5 0 005 5h26V0z"/>
  <path fill="#fff" d="M24.433 14.902l-.174-.305c.005-2.174-1.003-3.06-2.179-3.734.356-.094.722-.17.825-.62.614-.154.74-.44.801-.74.16-.107.694-.407.638-.923.3-.206.468-.473.38-.848.323-.351.407-.642.271-.909.39-.483.216-.731.052-.98.29-.524.032-1.087-.778-.993-.324-.473-1.026-.365-1.134-.365-.122-.15-.282-.282-.774-.22-.318-.287-.674-.235-1.045-.1-.435-.341-.726-.065-1.059.038-.53-.168-.651.061-.909.16-.576-.122-.754.14-1.03.417l-.324-.005c-.872.506-1.303 1.537-1.457 2.067-.155-.53-.586-1.56-1.458-2.067l-.323.005c-.277-.277-.455-.54-1.031-.417-.263-.094-.38-.328-.91-.16-.215-.065-.416-.206-.65-.201a.694.694 0 00-.408.164c-.37-.14-.727-.188-1.046.098-.492-.06-.655.066-.773.22-.107 0-.81-.107-1.134.366-.81-.094-1.064.469-.773.994-.164.253-.337.501.052.979-.136.267-.052.558.271.91-.084.374.085.641.38.847-.056.516.478.816.637.924.061.3.188.58.802.74.103.445.468.525.824.619-1.176.674-2.183 1.56-2.179 3.734l-.173.305c-1.35.806-2.563 3.407-.666 5.516.122.66.333 1.134.516 1.659.276 2.118 2.085 3.107 2.559 3.224.698.525 1.443 1.021 2.446 1.368.951.965 1.982 1.331 3.013 1.331h.047c1.036 0 2.062-.366 3.009-1.33 1.007-.348 1.747-.844 2.446-1.37.478-.116 2.282-1.105 2.558-3.223.183-.525.394-.999.516-1.66 1.902-2.113.689-4.709-.656-5.515zm-1.04-.375c-.07.877-4.635-3.05-3.848-3.182 2.142-.351 3.918.9 3.847 3.182zm-2.016 4.363c-1.148.74-2.802.262-3.692-1.069-.89-1.33-.685-3.008.464-3.748 1.148-.74 2.802-.263 3.692 1.068.89 1.33.684 3.009-.464 3.749zM18.195 5.38c.038.196.085.318.136.356.253-.272.46-.548.788-.81 0 .154-.08.318.117.44.173-.235.412-.446.726-.624-.15.263-.028.342.056.45.24-.206.469-.412.91-.576-.122.145-.291.29-.113.459.248-.155.497-.31 1.082-.417-.13.145-.407.295-.238.44.309-.117.656-.206 1.035-.253-.183.15-.332.296-.183.413.333-.103.792-.24 1.238-.122l-.282.286c-.032.037.661.028 1.12.037-.168.235-.337.455-.435.853.046.047.271.019.487 0-.22.464-.6.577-.689.778.136.103.319.075.525.005-.16.323-.487.548-.75.81.066.047.183.075.455.043a4.209 4.209 0 01-.881.703c.06.07.271.07.468.075-.314.304-.717.464-1.096.665.187.127.323.098.468.098-.267.22-.721.333-1.143.47.08.126.16.158.333.191-.445.249-1.088.136-1.266.263.043.126.17.206.314.271-.721.043-2.685-.028-3.064-1.513.735-.81 2.08-1.758 4.39-2.934-1.799.6-3.42 1.406-4.78 2.507-1.607-.745-.505-2.62.272-3.364zm-1.612 5.37c1.134-.014 2.536.834 2.53 1.626-.004.703-.983 1.27-2.52 1.26-1.505-.018-2.517-.712-2.512-1.396 0-.557 1.228-1.523 2.502-1.49zm-5.764-.6c.174-.033.253-.07.333-.192-.422-.131-.876-.248-1.143-.469.145 0 .28.033.468-.098-.38-.201-.782-.36-1.096-.665.196-.005.407 0 .468-.075a4.209 4.209 0 01-.88-.703c.271.032.388.004.454-.042-.263-.263-.595-.488-.75-.811.202.07.389.094.525-.005-.09-.197-.469-.314-.689-.778.216.019.44.047.487 0-.098-.398-.271-.623-.435-.853.459-.004 1.152 0 1.12-.037l-.282-.286c.446-.117.905.019 1.238.122.15-.117-.005-.263-.183-.413.38.052.721.136 1.035.253.164-.145-.107-.295-.239-.44.586.108.835.262 1.083.417.178-.169.01-.314-.113-.46.441.16.67.371.91.577.08-.108.206-.187.056-.45.314.178.553.39.726.624.192-.122.117-.291.117-.44.328.261.535.538.788.81.051-.038.093-.16.136-.356.777.745 1.879 2.62.28 3.364-1.358-1.1-2.98-1.907-4.78-2.507 2.311 1.172 3.656 2.123 4.392 2.934-.375 1.49-2.343 1.556-3.065 1.513.145-.065.272-.15.314-.271-.188-.132-.825-.02-1.275-.263zm2.817 1.13c.787.13-3.777 4.053-3.848 3.181-.07-2.282 1.71-3.538 3.848-3.181zM8.79 20.033c-1.11-.88-1.467-3.453.59-4.606 1.242-.328.422 5.052-.59 4.606zm4.265 4.602c-.624.37-2.147.22-3.224-1.307-.727-1.284-.633-2.587-.122-2.971.764-.46 1.944.16 2.854 1.2.792.937 1.152 2.59.492 3.078zm-1.237-5.61c-1.149-.74-1.355-2.417-.464-3.748.89-1.331 2.544-1.809 3.692-1.068 1.148.74 1.355 2.418.464 3.748-.895 1.331-2.55 1.81-3.692 1.069zm4.789 8.225c-1.378.056-2.728-1.11-2.709-1.513-.019-.596 1.678-1.06 2.78-1.031 1.11-.047 2.605.351 2.61.885.023.516-1.35 1.683-2.681 1.66zm2.76-5.853c.01 1.392-1.228 2.521-2.756 2.53-1.527.01-2.774-1.115-2.783-2.502v-.028c-.01-1.392 1.228-2.521 2.755-2.53 1.528-.01 2.775 1.115 2.784 2.502v.028zm3.852 2.001c-1.186 1.622-2.793 1.683-3.388 1.233-.623-.582-.15-2.386.707-3.375.98-1.091 2.03-1.804 2.76-1.246.493.483.783 2.3-.079 3.388zm1.073-3.43c-1.007.44-1.827-4.935-.59-4.607 2.057 1.158 1.7 3.73.59 4.607zM53.537 22H50.82l-1.634-2.703a9.185 9.185 0 00-.351-.549 2.72 2.72 0 00-.345-.41 1.192 1.192 0 00-.358-.264.86.86 0 00-.403-.095h-.637V22h-2.366V11.497h3.75c2.549 0 3.823.952 3.823 2.857 0 .366-.056.705-.168 1.018a2.829 2.829 0 01-.477.834c-.205.25-.454.464-.747.645-.288.18-.61.322-.966.425v.03c.156.048.307.129.454.24.146.108.288.235.425.382.136.146.266.305.388.476.127.166.242.33.344.49L53.537 22zm-6.445-8.73v2.922h1.025c.508 0 .916-.147 1.223-.44.313-.297.469-.666.469-1.106 0-.918-.55-1.377-1.648-1.377h-1.07zM60.982 22h-2.19v-1.077h-.029c-.503.84-1.247 1.26-2.234 1.26-.727 0-1.3-.205-1.72-.615-.416-.415-.623-.967-.623-1.655 0-1.456.861-2.295 2.585-2.52l2.036-.27c0-.821-.444-1.231-1.333-1.231-.893 0-1.743.266-2.549.798v-1.743c.323-.166.762-.313 1.319-.44a7 7 0 011.53-.19c2.14 0 3.209 1.067 3.209 3.2V22zm-2.175-3.047v-.505l-1.362.175c-.752.098-1.128.438-1.128 1.019 0 .263.09.48.27.652.186.165.435.248.748.248.435 0 .789-.148 1.062-.446.273-.303.41-.684.41-1.143zm3.696 2.85v-1.876c.38.23.76.4 1.135.513.38.112.74.168 1.077.168.41 0 .732-.056.966-.168.24-.112.36-.283.36-.513a.475.475 0 00-.162-.366 1.485 1.485 0 00-.417-.256 4.47 4.47 0 00-.55-.198 6.714 6.714 0 01-.578-.198 6.04 6.04 0 01-.791-.359 2.436 2.436 0 01-.571-.454 1.855 1.855 0 01-.352-.593 2.436 2.436 0 01-.117-.798c0-.42.09-.782.27-1.084.186-.303.43-.55.733-.74a3.276 3.276 0 011.048-.425 5.37 5.37 0 011.23-.14c.332 0 .669.028 1.01.082a7.16 7.16 0 011.011.22v1.786a3.549 3.549 0 00-.944-.38 3.824 3.824 0 00-.982-.132c-.151 0-.295.014-.432.043a1.243 1.243 0 00-.351.118.609.609 0 00-.242.197.507.507 0 00.044.623c.088.098.202.183.344.256.142.069.298.132.469.19.176.055.349.11.52.17.308.107.586.224.835.35.249.128.461.277.637.448.18.17.317.37.41.6.098.23.147.503.147.82 0 .445-.098.826-.293 1.143-.19.313-.447.569-.77.77a3.43 3.43 0 01-1.105.424c-.415.093-.847.14-1.297.14a6.7 6.7 0 01-2.292-.382zm9.62-.675h-.029v4.322H69.78V14.5h2.314v1.128h.03c.571-.874 1.374-1.311 2.41-1.311.971 0 1.72.334 2.248 1.003.532.664.798 1.57.798 2.718 0 1.25-.31 2.253-.93 3.01-.615.757-1.435 1.135-2.46 1.135-.904 0-1.593-.352-2.066-1.055zm-.065-3.076v.6c0 .518.136.94.41 1.268.273.327.632.49 1.077.49.527 0 .935-.202 1.223-.607.293-.41.44-.989.44-1.736 0-1.319-.513-1.978-1.539-1.978-.474 0-.862.181-1.164.542-.298.357-.447.83-.447 1.421zm9.547 3.076h-.029V22h-2.314V10.896h2.314v4.732h.03c.57-.874 1.384-1.311 2.439-1.311.966 0 1.71.332 2.233.996.523.664.784 1.572.784 2.725 0 1.25-.305 2.253-.915 3.01-.61.757-1.426 1.135-2.447 1.135-.923 0-1.62-.352-2.094-1.055zm-.065-3.164v.77c0 .483.139.883.417 1.2.278.318.635.477 1.07.477.527 0 .934-.203 1.222-.608.294-.41.44-.989.44-1.736 0-.62-.134-1.104-.403-1.45-.264-.352-.642-.528-1.135-.528-.464 0-.85.174-1.157.52-.303.347-.454.799-.454 1.355zm13.942.945h-4.893c.078 1.089.764 1.634 2.058 1.634.825 0 1.55-.196 2.176-.587v1.67c-.694.372-1.595.557-2.703.557-1.211 0-2.15-.334-2.82-1.003-.669-.674-1.003-1.612-1.003-2.813 0-1.245.361-2.231 1.084-2.959.722-.727 1.611-1.091 2.666-1.091 1.094 0 1.938.325 2.534.974.6.65.9 1.53.9 2.644v.974zm-2.146-1.42c0-1.075-.435-1.612-1.304-1.612-.371 0-.693.154-.967.461-.268.308-.432.691-.49 1.15h2.76zm8.595-.902a2.006 2.006 0 00-.974-.227c-.503 0-.896.186-1.179.557-.283.366-.425.867-.425 1.502V22H97.04v-7.5h2.314v1.392h.03c.366-1.016 1.025-1.524 1.977-1.524.244 0 .435.03.571.088v2.131zm6.157 0a2.006 2.006 0 00-.974-.227c-.503 0-.896.186-1.179.557-.284.366-.425.867-.425 1.502V22h-2.315v-7.5h2.315v1.392h.029c.366-1.016 1.025-1.524 1.978-1.524.244 0 .434.03.571.088v2.131zm9.006-2.087l-3.047 8.1c-.733 1.949-1.836 2.923-3.311 2.923-.561 0-1.023-.064-1.384-.19v-1.846c.307.18.642.27 1.003.27.596 0 1.011-.28 1.245-.841l.396-.93-3.047-7.486h2.563l1.399 4.563c.088.283.157.618.206 1.003h.029c.044-.283.124-.612.241-.988l1.414-4.578h2.293zm8.292 3.882V22h-2.366V11.497h3.706c2.646 0 3.97 1.116 3.97 3.347 0 1.055-.381 1.91-1.143 2.564-.757.65-1.77.974-3.039.974h-1.128zm0-5.069v3.274h.93c1.26 0 1.89-.551 1.89-1.655 0-1.079-.63-1.619-1.89-1.619h-.93zm8.236 0c-.39 0-.71-.114-.959-.344a1.133 1.133 0 01-.374-.857c0-.346.125-.63.374-.85.249-.219.569-.329.959-.329.396 0 .716.11.96.33.249.22.373.503.373.85 0 .35-.124.639-.373.864-.244.224-.564.336-.96.336zM134.765 22h-2.315v-7.5h2.315V22z"/>
  <path fill="url(#paint0_linear_2_87)" d="M143 0H5a5 5 0 00-5 5v22a5 5 0 005 5h138a5 5 0 005-5V5a5 5 0 00-5-5z"/>
  <defs>
    <linearGradient id="paint0_linear_2_87" x1="0" x2="0" y1="0" y2="32" gradientUnits="userSpaceOnUse">
      <stop stop-color="#BBB" stop-opacity=".1"/>
      <stop offset="1" stop-opacity=".1"/>
    </linearGradient>
  </defs>
</svg>
