<svg xmlns="http://www.w3.org/2000/svg" width="120" height="32" fill="none" viewBox="0 0 120 32">
  <path fill="#fff" d="M45.278 21.597v-2.344c.424.357.886.625 1.384.806a4.504 4.504 0 0 0 1.509.264 3.3 3.3 0 0 0 .776-.08 1.84 1.84 0 0 0 .557-.22c.151-.098.263-.21.337-.337a.91.91 0 0 0-.066-.974 1.873 1.873 0 0 0-.484-.447 4.84 4.84 0 0 0-.718-.396 24.825 24.825 0 0 0-.9-.388c-.82-.342-1.434-.76-1.839-1.253-.4-.493-.6-1.088-.6-1.787 0-.546.11-1.015.33-1.406a2.8 2.8 0 0 1 .893-.974c.38-.254.82-.44 1.318-.557a6.625 6.625 0 0 1 1.582-.183c.547 0 1.03.034 1.45.103.425.063.816.163 1.172.3v2.19a4.116 4.116 0 0 0-1.216-.55c-.22-.063-.44-.11-.659-.138a4.56 4.56 0 0 0-.615-.044c-.269 0-.513.027-.732.08-.22.049-.406.12-.557.213a1.06 1.06 0 0 0-.352.337.772.772 0 0 0-.124.432.85.85 0 0 0 .139.476c.093.136.225.268.395.395.171.122.379.244.623.366.244.118.52.24.828.367.42.175.796.363 1.128.564.336.195.625.417.864.666.24.25.422.535.55.857.126.317.19.689.19 1.113 0 .586-.113 1.08-.337 1.48a2.72 2.72 0 0 1-.901.967c-.381.244-.825.42-1.333.527a7.632 7.632 0 0 1-1.597.161 8.954 8.954 0 0 1-1.648-.146 4.964 4.964 0 0 1-1.347-.44Zm14.037.586c-1.504 0-2.73-.488-3.677-1.465-.947-.986-1.42-2.263-1.42-3.83 0-1.656.48-2.998 1.442-4.029.957-1.025 2.232-1.538 3.823-1.538 1.5 0 2.71.491 3.633 1.473.928.976 1.392 2.27 1.392 3.881 0 1.646-.481 2.976-1.443 3.992a1.891 1.891 0 0 0-.095.102c-.03.03-.061.06-.096.088l2.66 2.557h-3.311L60.83 22a5.89 5.89 0 0 1-1.516.183Zm.102-8.826c-.825 0-1.484.313-1.977.938-.488.62-.732 1.443-.732 2.468 0 1.04.244 1.863.732 2.468.488.606 1.128.909 1.919.909.815 0 1.462-.293 1.94-.88.48-.595.719-1.413.719-2.453 0-1.084-.232-1.931-.696-2.541-.46-.606-1.094-.909-1.905-.909ZM73.22 22h-6.254V11.497h2.365v8.584h3.89V22Z"/>
  <path fill="url(#a)" d="M82 0H5a5 5 0 0 0-5 5v22a5 5 0 0 0 5 5h77a5 5 0 0 0 5-5V5a5 5 0 0 0-5-5Z"/>
  <path fill="#0F1418" d="M115 0H17v32h98a5 5 0 0 0 5-5V5a5 5 0 0 0-5-5Z"/>
  <path fill="#106682" d="M31 0H5a5 5 0 0 0-5 5v22a5 5 0 0 0 5 5h26V0Z"/>
  <path fill="#fff" d="M26 7.429V9.57C26 11.46 21.297 13 15.5 13S5 11.46 5 9.571V7.43C5 5.54 9.703 4 15.5 4S26 5.54 26 7.429Zm0 4.821v4.821c0 1.889-4.703 3.429-10.5 3.429S5 18.96 5 17.071V12.25c2.256 1.554 6.385 2.277 10.5 2.277s8.244-.723 10.5-2.277Zm0 7.5v4.821C26 26.46 21.297 28 15.5 28S5 26.46 5 24.571V19.75c2.256 1.554 6.385 2.277 10.5 2.277s8.244-.723 10.5-2.277Zm9.723 1.847v-2.344c.425.357.886.625 1.385.806a4.504 4.504 0 0 0 1.508.264c.298 0 .557-.027.777-.08a1.84 1.84 0 0 0 .556-.22c.152-.098.264-.21.337-.337a.91.91 0 0 0-.066-.974 1.873 1.873 0 0 0-.483-.447 4.84 4.84 0 0 0-.718-.396 24.825 24.825 0 0 0-.9-.388c-.821-.342-1.434-.76-1.84-1.253-.4-.493-.6-1.088-.6-1.787 0-.546.11-1.015.33-1.406.22-.395.517-.72.893-.974a4 4 0 0 1 1.319-.557 6.625 6.625 0 0 1 1.582-.183c.547 0 1.03.034 1.45.103.425.063.815.163 1.172.3v2.19a4.11 4.11 0 0 0-1.216-.55 4.54 4.54 0 0 0-.66-.138 4.56 4.56 0 0 0-.614-.044 3.13 3.13 0 0 0-.733.08c-.22.049-.405.12-.556.213a1.06 1.06 0 0 0-.352.337.772.772 0 0 0-.124.432.85.85 0 0 0 .139.476c.092.136.224.268.395.395.171.122.379.244.623.366.244.118.52.24.827.367.42.175.796.363 1.128.564a3.9 3.9 0 0 1 .865.666c.239.25.422.535.549.857.127.317.19.689.19 1.113 0 .586-.112 1.08-.337 1.48-.22.395-.52.718-.9.967-.381.244-.826.42-1.334.527a7.632 7.632 0 0 1-1.596.161 8.953 8.953 0 0 1-1.648-.146 4.964 4.964 0 0 1-1.348-.44Zm14.038.586c-1.504 0-2.73-.488-3.677-1.465-.947-.986-1.421-2.263-1.421-3.83 0-1.656.48-2.998 1.443-4.029.957-1.025 2.231-1.538 3.823-1.538 1.5 0 2.71.491 3.633 1.473.928.976 1.392 2.27 1.392 3.881 0 1.646-.482 2.976-1.443 3.992a1.852 1.852 0 0 0-.096.102c-.029.03-.06.06-.095.088l2.659 2.557h-3.31L51.276 22a5.89 5.89 0 0 1-1.516.183Zm.102-8.826c-.825 0-1.484.313-1.977.938-.489.62-.733 1.443-.733 2.468 0 1.04.244 1.863.733 2.468.488.606 1.128.909 1.919.909.815 0 1.462-.293 1.94-.88.479-.595.718-1.413.718-2.453 0-1.084-.232-1.931-.696-2.541-.459-.606-1.093-.909-1.904-.909ZM63.666 22h-6.255V11.497h2.366v8.584h3.89V22Zm5.97-.403v-2.344c.425.357.887.625 1.385.806a4.505 4.505 0 0 0 1.509.264c.297 0 .556-.027.776-.08a1.84 1.84 0 0 0 .557-.22c.151-.098.263-.21.337-.337a.91.91 0 0 0-.066-.974 1.873 1.873 0 0 0-.484-.447 4.82 4.82 0 0 0-.718-.396 24.978 24.978 0 0 0-.9-.388c-.82-.342-1.433-.76-1.839-1.253-.4-.493-.6-1.088-.6-1.787 0-.546.11-1.015.33-1.406a2.8 2.8 0 0 1 .893-.974c.38-.254.82-.44 1.318-.557a6.625 6.625 0 0 1 1.582-.183c.547 0 1.03.034 1.45.103a5.56 5.56 0 0 1 1.172.3v2.19a4.116 4.116 0 0 0-1.216-.55 4.54 4.54 0 0 0-.659-.138 4.558 4.558 0 0 0-.615-.044c-.269 0-.513.027-.732.08-.22.049-.406.12-.557.213a1.06 1.06 0 0 0-.352.337.772.772 0 0 0-.124.432.85.85 0 0 0 .139.476c.093.136.225.268.396.395.17.122.378.244.622.366.244.118.52.24.828.367.42.175.796.363 1.128.564.337.195.625.417.864.666a2.6 2.6 0 0 1 .55.857c.126.317.19.689.19 1.113 0 .586-.113 1.08-.337 1.48a2.72 2.72 0 0 1-.901.967c-.381.244-.825.42-1.333.527a7.631 7.631 0 0 1-1.597.161 8.955 8.955 0 0 1-1.648-.146 4.962 4.962 0 0 1-1.347-.44Zm15.847-2.688h-4.892c.078 1.089.764 1.634 2.058 1.634.825 0 1.55-.196 2.175-.587v1.67c-.694.372-1.594.557-2.703.557-1.21 0-2.15-.334-2.82-1.003-.669-.674-1.003-1.612-1.003-2.813 0-1.245.361-2.231 1.084-2.959.723-.727 1.611-1.091 2.666-1.091 1.094 0 1.939.325 2.534.974.6.65.901 1.53.901 2.644v.974Zm-2.146-1.42c0-1.075-.434-1.612-1.304-1.612-.37 0-.693.154-.966.461-.269.308-.433.691-.491 1.15h2.761Zm8.596-.902a2.007 2.007 0 0 0-.975-.227c-.502 0-.895.186-1.179.557-.283.366-.424.867-.424 1.502V22H87.04v-7.5h2.314v1.392h.03c.366-1.016 1.025-1.524 1.977-1.524.244 0 .435.03.572.088v2.131Zm9.005-2.087-2.79 7.5H95.51l-2.659-7.5h2.476l1.304 4.622c.146.522.232.966.256 1.333h.03c.033-.347.124-.777.27-1.29L98.52 14.5h2.417Zm7.761 4.41h-4.893c.078 1.088.764 1.633 2.058 1.633.826 0 1.551-.196 2.176-.587v1.67c-.694.372-1.595.557-2.703.557-1.211 0-2.151-.334-2.82-1.003-.669-.674-1.003-1.612-1.003-2.813 0-1.245.361-2.231 1.084-2.959.722-.727 1.611-1.091 2.666-1.091 1.094 0 1.938.325 2.534.974.601.65.901 1.53.901 2.644v.974Zm-2.146-1.422c0-1.074-.435-1.611-1.304-1.611-.371 0-.693.154-.967.461-.268.308-.432.691-.49 1.15h2.761Zm8.595-.9a2.006 2.006 0 0 0-.974-.228c-.503 0-.896.186-1.179.557-.283.366-.425.867-.425 1.502V22h-2.314v-7.5h2.314v1.392h.03c.366-1.016 1.025-1.524 1.977-1.524.244 0 .435.03.571.088v2.131Z"/>
  <defs>
    <linearGradient id="a" x1="0" x2="0" y1="0" y2="32" gradientUnits="userSpaceOnUse">
      <stop stop-color="#BBB" stop-opacity=".1"/>
      <stop offset="1" stop-opacity=".1"/>
    </linearGradient>
  </defs>
</svg>
