<svg xmlns="http://www.w3.org/2000/svg" width="88" height="32" fill="none" viewBox="0 0 88 32">
  <path fill="#fff" d="M45.278 21.597v-2.344c.424.357.886.625 1.384.806a4.504 4.504 0 001.509.264 3.3 3.3 0 00.776-.08 1.84 1.84 0 00.557-.22c.151-.098.263-.21.337-.337a.91.91 0 00-.066-.974 1.873 1.873 0 00-.484-.447 4.84 4.84 0 00-.718-.396 24.825 24.825 0 00-.9-.388c-.82-.342-1.434-.76-1.839-1.253-.4-.493-.6-1.088-.6-1.787 0-.546.11-1.015.33-1.406a2.8 2.8 0 01.893-.974c.38-.254.82-.44 1.318-.557a6.625 6.625 0 011.582-.183c.547 0 1.03.034 1.45.103.425.063.816.163 1.172.3v2.19a4.116 4.116 0 00-1.216-.55c-.22-.063-.44-.11-.659-.138a4.56 4.56 0 00-.615-.044c-.269 0-.513.027-.732.08-.22.049-.406.12-.557.213a1.06 1.06 0 00-.352.337.772.772 0 00-.124.432.85.85 0 00.139.476c.093.136.225.268.395.395.171.122.379.244.623.366.244.118.52.24.828.367.42.175.796.363 1.128.564.336.195.625.417.864.666.24.25.422.535.55.857.126.317.19.689.19 1.113 0 .586-.113 1.08-.337 1.48-.22.395-.52.718-.901.967-.381.244-.825.42-1.333.527a7.632 7.632 0 01-1.597.161 8.954 8.954 0 01-1.648-.146 4.964 4.964 0 01-1.347-.44zm14.037.586c-1.504 0-2.73-.488-3.677-1.465-.947-.986-1.42-2.263-1.42-3.83 0-1.656.48-2.998 1.442-4.029.957-1.025 2.232-1.538 3.823-1.538 1.5 0 2.71.491 3.633 1.473.928.976 1.392 2.27 1.392 3.881 0 1.646-.481 2.976-1.443 3.992a1.891 1.891 0 00-.095.102c-.03.03-.061.06-.096.088l2.66 2.557h-3.311L60.83 22a5.89 5.89 0 01-1.516.183zm.102-8.826c-.825 0-1.484.313-1.977.938-.488.62-.732 1.443-.732 2.468 0 1.04.244 1.863.732 2.468.488.606 1.128.909 1.919.909.815 0 1.462-.293 1.94-.88.48-.595.719-1.413.719-2.453 0-1.084-.232-1.931-.696-2.541-.46-.606-1.094-.909-1.905-.909zM73.22 22h-6.254V11.497h2.365v8.584h3.89V22z"/>
  <path fill="url(#paint0_linear_12_66)" d="M82 0H5a5 5 0 00-5 5v22a5 5 0 005 5h77a5 5 0 005-5V5a5 5 0 00-5-5z"/>
  <path fill="#0F1418" d="M83 0H17v32h66a5 5 0 005-5V5a5 5 0 00-5-5z"/>
  <path fill="#106682" d="M31 0H5a5 5 0 00-5 5v22a5 5 0 005 5h26V0z"/>
  <path fill="#fff" d="M26 7.429V9.57C26 11.46 21.297 13 15.5 13S5 11.46 5 9.571V7.43C5 5.54 9.703 4 15.5 4S26 5.54 26 7.429zm0 4.821v4.821c0 1.889-4.703 3.429-10.5 3.429S5 18.96 5 17.071V12.25c2.256 1.554 6.385 2.277 10.5 2.277s8.244-.723 10.5-2.277zm0 7.5v4.821C26 26.46 21.297 28 15.5 28S5 26.46 5 24.571V19.75c2.256 1.554 6.385 2.277 10.5 2.277s8.244-.723 10.5-2.277zM45.278 21.597v-2.344c.424.357.886.625 1.384.806a4.504 4.504 0 001.509.264 3.3 3.3 0 00.776-.08 1.84 1.84 0 00.557-.22c.151-.098.263-.21.337-.337a.91.91 0 00-.066-.974 1.873 1.873 0 00-.484-.447 4.84 4.84 0 00-.718-.396 24.825 24.825 0 00-.9-.388c-.82-.342-1.434-.76-1.839-1.253-.4-.493-.6-1.088-.6-1.787 0-.546.11-1.015.33-1.406a2.8 2.8 0 01.893-.974c.38-.254.82-.44 1.318-.557a6.625 6.625 0 011.582-.183c.547 0 1.03.034 1.45.103.425.063.816.163 1.172.3v2.19a4.116 4.116 0 00-1.216-.55c-.22-.063-.44-.11-.659-.138a4.56 4.56 0 00-.615-.044c-.269 0-.513.027-.732.08-.22.049-.406.12-.557.213a1.06 1.06 0 00-.352.337.772.772 0 00-.124.432.85.85 0 00.139.476c.093.136.225.268.395.395.171.122.379.244.623.366.244.118.52.24.828.367.42.175.796.363 1.128.564.336.195.625.417.864.666.24.25.422.535.55.857.126.317.19.689.19 1.113 0 .586-.113 1.08-.337 1.48-.22.395-.52.718-.901.967-.381.244-.825.42-1.333.527a7.632 7.632 0 01-1.597.161 8.954 8.954 0 01-1.648-.146 4.964 4.964 0 01-1.347-.44zm14.037.586c-1.504 0-2.73-.488-3.677-1.465-.947-.986-1.42-2.263-1.42-3.83 0-1.656.48-2.998 1.442-4.029.957-1.025 2.232-1.538 3.823-1.538 1.5 0 2.71.491 3.633 1.473.928.976 1.392 2.27 1.392 3.881 0 1.646-.481 2.976-1.443 3.992a1.891 1.891 0 00-.095.102c-.03.03-.061.06-.096.088l2.66 2.557h-3.311L60.83 22a5.89 5.89 0 01-1.516.183zm.102-8.826c-.825 0-1.484.313-1.977.938-.488.62-.732 1.443-.732 2.468 0 1.04.244 1.863.732 2.468.488.606 1.128.909 1.919.909.815 0 1.462-.293 1.94-.88.48-.595.719-1.413.719-2.453 0-1.084-.232-1.931-.696-2.541-.46-.606-1.094-.909-1.905-.909zM73.22 22h-6.254V11.497h2.365v8.584h3.89V22z"/>
  <defs>
    <linearGradient id="paint0_linear_12_66" x1="0" x2="0" y1="0" y2="32" gradientUnits="userSpaceOnUse">
      <stop stop-color="#BBB" stop-opacity=".1"/>
      <stop offset="1" stop-opacity=".1"/>
    </linearGradient>
  </defs>
</svg>
