<svg xmlns="http://www.w3.org/2000/svg" width="95" height="32" fill="none" viewBox="0 0 95 32">
  <path fill="#0F1418" d="M90 0H31v32h59a5 5 0 005-5V5a5 5 0 00-5-5z"/>
  <path fill="#19E3B1" d="M31 0H5a5 5 0 00-5 5v22a5 5 0 005 5h26V0z"/>
  <path fill="#fff" d="M27.542 13.254L24.916 3.72l-9.804 2.555-1.452 2.49-2.945-.022-7.175 6.978 7.176 6.98 2.943-.022 1.454 2.487 9.803 2.554 2.626-9.53-1.492-2.469 1.492-2.467zM13.897 9.166l7.5-1.875-4.305 7.253H8.48l5.416-5.378zm0 13.112L8.48 16.9h8.612l4.304 7.253-7.499-1.875zm9.6.696l-4.308-7.253 4.306-7.254 2.08 7.254-2.079 7.253zM53.346 17.452c0 3.154-1.47 4.731-4.41 4.731-2.851 0-4.277-1.54-4.277-4.622v-6.064h2.373v6.094c0 1.699.664 2.549 1.992 2.549 1.304 0 1.956-.82 1.956-2.461v-6.182h2.366v5.955zM63.098 22h-2.307v-4.168c0-1.162-.415-1.743-1.245-1.743-.4 0-.73.154-.989.462-.259.307-.388.698-.388 1.172V22h-2.314v-7.5h2.314v1.187h.03c.551-.914 1.354-1.37 2.41-1.37 1.66 0 2.49 1.03 2.49 3.09V22zm3.19-8.687c-.39 0-.71-.114-.959-.344a1.132 1.132 0 01-.373-.857c0-.346.124-.63.373-.85.25-.219.569-.329.96-.329.395 0 .715.11.959.33.25.22.374.503.374.85 0 .35-.125.639-.374.864-.244.224-.564.336-.96.336zM67.432 22h-2.314v-7.5h2.314V22zm6.662-.088c-.342.18-.857.271-1.545.271-1.631 0-2.447-.847-2.447-2.541v-3.436h-1.215V14.5H70.1v-1.619l2.308-.659V14.5h1.684v1.706H72.41v3.033c0 .781.31 1.172.93 1.172.244 0 .495-.071.754-.213v1.714zm8.632-7.412l-3.047 8.1c-.732 1.949-1.836 2.923-3.31 2.923-.562 0-1.023-.064-1.384-.19v-1.846c.307.18.642.27 1.003.27.596 0 1.01-.28 1.245-.841l.396-.93L74.58 14.5h2.563l1.4 4.563c.087.283.155.618.204 1.003h.03a6.99 6.99 0 01.241-.988l1.414-4.578h2.292z"/>
  <path fill="url(#paint0_linear_2_86)" d="M90 0H5a5 5 0 00-5 5v22a5 5 0 005 5h85a5 5 0 005-5V5a5 5 0 00-5-5z"/>
  <defs>
    <linearGradient id="paint0_linear_2_86" x1="0" x2="0" y1="0" y2="32" gradientUnits="userSpaceOnUse">
      <stop stop-color="#BBB" stop-opacity=".1"/>
      <stop offset="1" stop-opacity=".1"/>
    </linearGradient>
  </defs>
</svg>
